<svg width="32" height="32" viewBox="0 0 32 32" fill="none" xmlns="http://www.w3.org/2000/svg">
<path d="M32 1.53191C29.9775 2.08393 28.0143 2.77995 26.1198 3.60557H26.1182C23.2973 1.29831 19.6748 -0.0633345 15.7323 0.00226738C7.14648 0.141471 0.141471 7.14648 0.00226738 15.7323C-0.0633345 19.6748 1.29831 23.2973 3.60557 26.1182C2.77995 28.0143 2.08393 29.9775 1.53191 32H4.86001C5.20882 30.824 5.61043 29.6703 6.06324 28.5407C8.88893 30.7824 12.4874 32.0896 16.3931 31.9952C24.883 31.792 31.792 24.883 31.9952 16.3931C32.0896 12.4874 30.7824 8.88893 28.5407 6.06324C29.6703 5.61043 30.824 5.20882 32 4.86001V1.53191ZM5.19122 22.8605C3.92558 20.8733 3.19596 18.5132 3.19916 15.9803C3.21036 8.96413 8.96413 3.21036 15.9803 3.19916C18.5132 3.19596 20.8733 3.92558 22.8605 5.19122C15.3851 9.22654 9.22654 15.3851 5.19122 22.8605ZM28.5375 18.6364C27.5439 23.6158 23.6158 27.5439 18.6364 28.5375C14.3243 29.3967 10.289 28.0895 7.42648 25.5038C11.3274 17.6924 17.6924 11.3274 25.5038 7.42648C28.0895 10.289 29.3967 14.3243 28.5375 18.6364Z" fill="#F47920"/>
</svg>
