<svg width="110" height="102" viewBox="0 0 110 102" fill="none" xmlns="http://www.w3.org/2000/svg">
<path d="M82.6199 42.3013L70.0261 64.8436C73.2491 67.7866 75.4908 71.608 76.4599 75.811C77.4289 80.0141 77.0804 84.4045 75.4598 88.4117C73.8391 92.4189 71.0212 95.8576 67.3723 98.2809C63.7233 100.704 59.412 102 54.9987 102C50.5854 102 46.2741 100.704 42.6252 98.2809C38.9762 95.8576 36.1583 92.4189 34.5377 88.4117C32.917 84.4045 32.5686 80.0141 33.5376 75.811C34.5066 71.608 36.7483 67.7866 39.9714 64.8436L27.3776 42.2959C22.1859 43.5741 16.6948 42.96 11.9337 40.5688C7.17268 38.1775 3.46848 34.1732 1.51552 29.3066C-0.437446 24.4399 -0.505087 19.045 1.32527 14.1331C3.15564 9.22127 6.75833 5.1297 11.458 2.62539C16.1577 0.121086 21.6317 -0.624008 26.8539 0.529778C32.0761 1.68357 36.688 4.65702 39.825 8.89275C42.9619 13.1285 44.4087 18.3357 43.894 23.5382C43.3793 28.7408 40.9385 33.5815 37.0292 37.1529L49.623 59.7006C53.1499 58.8334 56.8421 58.8334 60.369 59.7006L72.9628 37.1529C69.0554 33.5796 66.6171 28.7379 66.105 23.5352C65.5929 18.3325 67.0421 13.1261 70.1811 8.89192C73.3201 4.65772 77.9332 1.68642 83.1558 0.534974C88.3785 -0.616477 93.852 0.130998 98.5505 2.63726C103.249 5.14353 106.85 9.23651 108.678 14.149C110.506 19.0615 110.436 24.4563 108.481 29.3221C106.526 34.1879 102.821 38.1906 98.0586 40.58C93.2967 42.9694 87.8055 43.5814 82.6144 42.3013M65.9949 80.5249C65.9949 77.6773 64.8361 74.9463 62.7734 72.9327C60.7107 70.9192 57.9131 69.788 54.996 69.788C52.0789 69.788 49.2812 70.9192 47.2185 72.9327C45.1558 74.9463 43.997 77.6773 43.997 80.5249C43.997 83.3726 45.1558 86.1036 47.2185 88.1171C49.2812 90.1307 52.0789 91.2619 54.996 91.2619C57.9131 91.2619 60.7107 90.1307 62.7734 88.1171C64.8361 86.1036 65.9949 83.3726 65.9949 80.5249ZM32.998 21.4716C32.998 18.6239 31.8392 15.8929 29.7765 13.8794C27.7138 11.8658 24.9162 10.7346 21.9991 10.7346C19.082 10.7346 16.2843 11.8658 14.2216 13.8794C12.1589 15.8929 11.0001 18.6239 11.0001 21.4716C11.0001 24.3192 12.1589 27.0502 14.2216 29.0637C16.2843 31.0773 19.082 32.2085 21.9991 32.2085C24.9162 32.2085 27.7138 31.0773 29.7765 29.0637C31.8392 27.0502 32.998 24.3192 32.998 21.4716ZM98.9919 21.4716C98.9919 18.6239 97.833 15.8929 95.7703 13.8794C93.7076 11.8658 90.91 10.7346 87.9929 10.7346C85.0758 10.7346 82.2782 11.8658 80.2154 13.8794C78.1527 15.8929 76.9939 18.6239 76.9939 21.4716C76.9939 24.3192 78.1527 27.0502 80.2154 29.0637C82.2782 31.0773 85.0758 32.2085 87.9929 32.2085C90.91 32.2085 93.7076 31.0773 95.7703 29.0637C97.833 27.0502 98.9919 24.3192 98.9919 21.4716Z" fill="#FF8C42"/>
</svg>
