<svg width="366" height="39" viewBox="0 0 366 39" fill="none" xmlns="http://www.w3.org/2000/svg">
<path d="M77.1147 3.14912C74.7421 3.78798 72.4457 4.59218 70.2252 5.5467C66.9174 2.87855 62.6818 1.30021 58.0584 1.37537C48.0056 1.53321 39.8006 9.64286 39.6333 19.5864C39.5573 24.1485 41.1542 28.3424 43.8537 31.6118C42.888 33.8065 42.0743 36.0763 41.4279 38.4212H45.3289C45.7395 37.0609 46.211 35.723 46.7357 34.4153C50.0436 37.0083 54.2639 38.5265 58.8341 38.4137C68.7804 38.1807 76.8713 30.1763 77.1071 20.353C77.2211 15.8284 75.6851 11.6646 73.0616 8.39522C74.3847 7.86911 75.7383 7.40312 77.1147 7.00478V3.14912ZM45.7091 27.8389C44.2263 25.539 43.3746 22.8032 43.3746 19.872C43.3898 11.7473 50.1272 5.08823 58.3474 5.07319C61.313 5.07319 64.081 5.91497 66.4079 7.38058C57.6554 12.0555 50.439 19.1805 45.7091 27.8389ZM73.054 22.9535C71.8906 28.7182 67.29 33.2653 61.4575 34.4153C56.4083 35.4074 51.6785 33.8967 48.325 30.9053C52.8951 21.8637 60.3473 14.4906 69.4952 9.98108C72.5217 13.2956 74.0578 17.963 73.0464 22.961L73.054 22.9535Z" fill="#F47920"/>
<path d="M33.6868 1.57837V37.6547H27.7023V21.255H7.45976V37.6547H1.47522V1.57837H7.45976V15.7684H27.7023V1.57837H33.6868Z" fill="white"/>
<path d="M79.4415 37.2188V32.0704C80.7571 32.6491 82.1639 32.9347 83.8216 32.9347C87.9127 32.9347 90.2472 29.8532 90.2472 25.2384V1.57837H96.2849V25.3887C96.2849 33.4683 91.7072 38.4213 84.5592 38.4213C82.7114 38.4213 80.7647 37.9854 79.4491 37.2188H79.4415Z" fill="white"/>
<path d="M102.072 36.3545V30.7251C103.92 31.9276 106.497 33.0851 109.813 33.0851C115.364 33.0851 117.699 30.3418 117.699 27.5534C117.699 25.2911 116.238 23.4196 113.22 21.9766L108.984 19.9548C104.802 17.9856 102.125 15.0469 102.125 10.9583C102.125 5.18606 107.235 1.09741 115.364 1.09741C118.284 1.09741 120.717 1.67614 121.888 2.34505V7.97446C120.428 7.11013 117.995 6.33599 115.463 6.33599C110.885 6.33599 108.36 8.21497 108.36 10.9508C108.36 12.7771 109.532 14.0774 112.155 15.325L116.292 17.2942C121.257 19.6542 123.546 22.9236 123.546 27.3955C123.546 33.07 119.508 38.4063 110.117 38.4063C106.809 38.4063 103.988 37.542 102.087 36.3395L102.072 36.3545Z" fill="white"/>
<path d="M151.948 37.6547L135.401 19.2783V37.6547H129.417V1.57837H135.401V17.5497L151.317 1.57837H158.906L142.26 18.2186L159.682 37.6472H151.94L151.948 37.6547Z" fill="white"/>
<path d="M159.203 19.7594C159.203 9.17701 167.278 1.09741 177.985 1.09741C188.692 1.09741 196.821 9.17701 196.821 19.7594C196.821 30.3418 188.791 38.4214 177.985 38.4214C167.179 38.4214 159.203 30.2892 159.203 19.7594ZM190.836 19.7594C190.836 12.2059 185.338 6.48631 177.993 6.48631C170.647 6.48631 165.24 12.2134 165.24 19.7594C165.24 27.3054 170.639 32.8897 177.993 32.8897C185.346 32.8897 190.836 27.2152 190.836 19.7594Z" fill="white"/>
<path d="M221.2 32.2207V37.6547H202.904V1.57837H208.889V32.2207H221.2Z" fill="white"/>
<path d="M250.256 32.2207V37.6547H226.553V1.57837H249.769V7.01236H232.249V15.7684H248.895V21.2024H232.249V32.2207H250.256Z" fill="white"/>
<path d="M288.901 1.5784V37.8426H287.927L262.476 13.7917V37.6472H256.59V1.33789H257.465L282.962 25.0956V1.5784H288.901Z" fill="white"/>
<path d="M328.367 19.5188C328.367 30.5822 320.093 38.4213 307.881 38.4213C303.546 38.4213 298.778 37.6021 296.687 36.6926V1.57837H308.269C320.238 1.57837 328.367 9.17694 328.367 19.5188ZM322.238 19.6165C322.238 12.7395 317.325 6.96727 308.269 6.96727H302.527V32.4086C304.33 32.7919 306.52 32.9873 308.367 32.9873C317.371 32.9873 322.238 27.0197 322.238 19.6165Z" fill="white"/>
<path d="M356.981 37.6547L340.434 19.2783V37.6547H334.45V1.57837H340.434V17.5497L356.35 1.57837H363.939L347.294 18.2186L364.715 37.6472H356.974L356.981 37.6547Z" fill="white"/>
</svg>
