<svg width="276" height="83" viewBox="0 0 276 83" fill="none" xmlns="http://www.w3.org/2000/svg">
<g clip-path="url(#clip0_307_2250)">
<path d="M82.9497 70.8754L75.3494 63.3287L73.1766 65.4862C65.7574 72.8486 55.896 76.9048 45.4075 76.9048C34.919 76.9048 25.0576 72.8486 17.6384 65.4862C10.2235 58.1193 6.13854 48.3275 6.13854 37.9087C6.13854 27.4942 10.2235 17.7024 17.6384 10.3355L19.8111 8.1781L12.4714 0.894548C11.8884 0.315723 11.12 0 10.2986 0C9.47719 0 8.70877 0.315723 8.12583 0.894548C7.54731 1.46899 7.22492 2.23637 7.22492 3.0476C7.22492 3.86322 7.54289 4.62621 8.12583 5.20504L11.1995 8.25703C7.69746 12.2299 4.95499 16.7114 3.0516 21.5963C1.02898 26.7838 0 32.2739 0 37.9087C0 49.9544 4.72535 61.2765 13.3016 69.7923C21.8779 78.308 33.2806 83 45.4119 83C51.0912 83 56.6203 81.9783 61.8446 79.9699C66.7643 78.0756 71.2777 75.3569 75.2788 71.8795L78.6086 75.1859C79.8054 76.3742 81.7529 76.3742 82.9497 75.1859C84.1421 73.9975 84.1465 72.0637 82.9497 70.8754Z" fill="#000506"/>
<path d="M14.0215 37.7857C14.0215 41.9822 14.8517 46.0559 16.4857 49.8884C18.0623 53.5938 20.319 56.9176 23.194 59.7723C26.0689 62.6269 29.4164 64.8677 33.1481 66.4332C37.0123 68.0556 41.1105 68.88 45.3368 68.88C49.5632 68.88 53.6658 68.0556 57.5256 66.4332C61.2529 64.8677 64.6048 62.6269 67.4797 59.7723C70.3547 56.9176 72.6114 53.5938 74.188 49.8884C75.822 46.0515 76.6522 41.9822 76.6522 37.7857C76.6522 33.5892 75.822 29.5155 74.188 25.683C72.6114 21.982 70.3547 18.6538 67.4797 15.7991C64.6048 12.9445 61.2573 10.7037 57.5256 9.13826C53.6614 7.51579 49.5632 6.69141 45.3368 6.69141C41.1105 6.69141 37.0079 7.51579 33.1481 9.13826C29.4164 10.7037 26.0689 12.9445 23.194 15.7991C20.319 18.6538 18.0623 21.9776 16.4857 25.683C14.8517 29.5155 14.0215 33.5892 14.0215 37.7857ZM27.7073 20.2763C32.415 15.5974 38.6772 13.0234 45.3413 13.0234C52.0053 13.0234 58.2631 15.5974 62.9752 20.2763C67.6873 24.9551 70.2796 31.1731 70.2796 37.7857C70.2796 44.3983 67.6873 50.6163 62.9752 55.2952C58.2631 59.974 52.0009 62.548 45.3413 62.548C38.6816 62.548 32.4194 59.974 27.7073 55.2952C22.9952 50.6163 20.4029 44.3983 20.4029 37.7857C20.4029 31.1731 22.9952 24.9507 27.7073 20.2763Z" fill="#000506"/>
<path d="M104.58 20.5569C104.58 21.8637 105.38 22.403 106.581 22.403C107.782 22.403 108.325 21.8637 108.325 20.5569V7.55089C108.325 6.95453 108.555 6.7002 109.156 6.7002H112.242C112.843 6.7002 113.042 6.95453 113.042 7.55089V21.3813C113.042 23.8238 111.611 26.2355 106.576 26.2355C101.542 26.2355 99.9433 23.8194 99.9433 21.3813V19.5089C99.9433 18.9125 100.173 18.6582 100.774 18.6582H103.777C104.377 18.6582 104.576 18.9125 104.576 19.5089V20.5569H104.58Z" fill="#000506"/>
<path d="M122.113 13.2032C122.342 13.8566 122.572 14.795 122.598 14.909C122.625 14.795 122.912 13.7733 123.173 13.2032L125.575 7.55089C125.774 7.06854 125.977 6.7002 126.577 6.7002H129.607C130.208 6.7002 130.495 7.01153 130.234 7.55089L124.97 18.8511V25.1568C124.97 25.7532 124.771 26.0075 124.171 26.0075H121.084C120.483 26.0075 120.253 25.7532 120.253 25.1568V19.4212L114.963 7.55089C114.733 7.03784 114.963 6.7002 115.563 6.7002H119.052C119.653 6.7002 119.909 7.04223 120.081 7.55089L122.113 13.2032Z" fill="#000506"/>
<path d="M140.643 11.9535C140.643 10.6467 139.729 10.1644 138.413 10.1644C137.097 10.1644 136.152 10.6467 136.152 11.9535V12.2385C136.152 13.0059 136.752 13.3479 137.066 13.4619L141.871 15.08C143.986 15.7904 145.443 17.2681 145.443 19.3686V21.3857C145.443 23.8281 143.699 26.2399 138.32 26.2399C132.941 26.2399 131.144 23.8281 131.144 21.3857V19.4826C131.144 18.8862 131.373 18.6319 131.974 18.6319H134.951C135.551 18.6319 135.75 18.8862 135.75 19.4826V20.7586C135.75 22.0654 136.867 22.5477 138.267 22.5477C139.667 22.5477 140.811 22.0654 140.811 20.7586V20.1886C140.811 19.1669 139.437 18.6845 138.351 18.2855L134.235 16.7507C132.778 16.2113 131.577 14.6196 131.577 12.9752V11.3264C131.577 8.88394 133.065 6.47217 138.355 6.47217C143.646 6.47217 145.249 8.88394 145.249 11.3264V12.3788C145.249 12.9752 145.02 13.2295 144.419 13.2295H141.442C140.842 13.2295 140.643 12.9752 140.643 12.3788V11.9535Z" fill="#000506"/>
<path d="M163.294 25.1568C163.581 25.5822 163.466 26.0075 162.865 26.0075H158.917C158.317 26.0075 158.003 25.5822 157.716 25.1568L153.198 18.1978H152.885V25.1568C152.885 25.7532 152.686 26.0075 152.086 26.0075H148.999C148.398 26.0075 148.168 25.7532 148.168 25.1568V7.55089C148.168 6.95453 148.398 6.7002 148.999 6.7002H152.086C152.686 6.7002 152.885 6.95453 152.885 7.55089V14.7906H153.172L157.548 7.55089C157.835 7.09485 158.29 6.7002 158.891 6.7002H162.181C162.782 6.7002 162.865 7.09923 162.583 7.55089L157.151 16.185L163.294 25.1568Z" fill="#000506"/>
<path d="M112.675 42.9078L115.48 49.8931C115.678 50.4062 115.307 50.7438 114.68 50.7438H111.593C111.05 50.7438 110.935 50.2878 110.763 49.8931L108.246 43.6182H106.1V49.8931C106.1 50.4895 105.901 50.7438 105.3 50.7438H102.213C101.613 50.7438 101.383 50.4895 101.383 49.8931V32.2872C101.383 31.6909 101.613 31.4365 102.213 31.4365H108.392C113.766 31.4365 115.656 33.8483 115.656 36.2908V38.7595C115.647 40.3776 114.817 41.9957 112.675 42.9078ZM106.095 35.269V39.7856H108.383C109.783 39.7856 110.984 39.2463 110.984 37.9395V37.1151C110.984 35.8084 109.783 35.269 108.383 35.269H106.095Z" fill="#000506"/>
<path d="M119.481 50.7438C118.88 50.7438 118.65 50.4895 118.65 49.8931V32.2872C118.65 31.6909 118.88 31.4365 119.481 31.4365H129.263C129.863 31.4365 130.119 31.6338 130.119 32.2302V34.4447C130.119 35.041 129.863 35.269 129.263 35.269H123.371V38.9612H128.803C129.404 38.9612 129.66 39.1586 129.66 39.7549V41.8291C129.66 42.4254 129.404 42.6534 128.803 42.6534H123.371V46.9113H129.55C130.15 46.9113 130.406 47.1086 130.406 47.705V49.9195C130.406 50.5158 130.15 50.7438 129.55 50.7438H119.481Z" fill="#000506"/>
<path d="M136.324 45.2932C136.324 46.6 137.123 47.1393 138.325 47.1393C139.526 47.1393 140.069 46.6 140.069 45.2932V32.2872C140.069 31.6909 140.299 31.4365 140.899 31.4365H143.986C144.587 31.4365 144.786 31.6909 144.786 32.2872V46.1176C144.786 48.5601 143.355 50.9719 138.325 50.9719C133.29 50.9719 131.691 48.5601 131.691 46.1176V44.2452C131.691 43.6489 131.921 43.3945 132.522 43.3945H135.525C136.125 43.3945 136.324 43.6489 136.324 44.2452V45.2932Z" fill="#000506"/>
<path d="M157.001 36.6854C157.001 35.3787 156.087 34.8963 154.771 34.8963C153.455 34.8963 152.509 35.3787 152.509 36.6854V36.9704C152.509 37.7378 153.11 38.0798 153.424 38.1895L158.228 39.8075C160.344 40.5179 161.801 41.9957 161.801 44.0961V46.1132C161.801 48.5557 160.057 50.9675 154.678 50.9675C149.299 50.9675 147.501 48.5557 147.501 46.1132V44.2101C147.501 43.6138 147.731 43.3594 148.332 43.3594H151.304C151.904 43.3594 152.103 43.6138 152.103 44.2101V45.4862C152.103 46.7929 153.22 47.2753 154.62 47.2753C156.02 47.2753 157.164 46.7929 157.164 45.4862V44.9205C157.164 43.8988 155.791 43.4164 154.704 43.0174L150.584 41.4826C149.127 40.9433 147.925 39.3515 147.925 37.7071V36.0583C147.925 33.6159 149.414 31.2041 154.704 31.2041C159.995 31.2041 161.598 33.6159 161.598 36.0583V37.1107C161.598 37.7071 161.368 37.9614 160.768 37.9614H157.791C157.191 37.9614 156.992 37.7071 156.992 37.1107V36.6854H157.001Z" fill="#000506"/>
<path d="M165.352 50.7438C164.751 50.7438 164.522 50.4895 164.522 49.8931V32.2872C164.522 31.6909 164.751 31.4365 165.352 31.4365H175.134C175.734 31.4365 175.991 31.6338 175.991 32.2302V34.4447C175.991 35.041 175.734 35.269 175.134 35.269H169.243V38.9612H174.674C175.275 38.9612 175.531 39.1586 175.531 39.7549V41.8291C175.531 42.4254 175.275 42.6534 174.674 42.6534H169.243V46.9113H175.421C176.021 46.9113 176.278 47.1086 176.278 47.705V49.9195C176.278 50.5158 176.021 50.7438 175.421 50.7438H165.352Z" fill="#000506"/>
<path d="M179.824 50.7438C179.223 50.7438 178.994 50.4895 178.994 49.8931V32.2872C178.994 31.6909 179.223 31.4365 179.824 31.4365H185.198C190.573 31.4365 192.463 33.4229 192.463 35.8654V37.4265C192.463 38.7902 191.805 39.8383 190.52 40.5793C192.291 41.2897 193.408 42.4824 193.408 43.9865V46.0869C193.408 48.5294 191.522 50.7438 186.143 50.7438H179.824ZM183.71 35.1243V39.2156H185.198C186.598 39.2156 187.799 38.6762 187.799 37.3432V36.6065C187.799 35.2997 186.598 35.1287 185.198 35.1287H183.71V35.1243ZM183.71 42.6798V47.0516H186.139C187.539 47.0516 188.74 46.5386 188.74 45.2319V44.3242C188.74 43.2454 187.539 42.6798 186.139 42.6798H183.71Z" fill="#000506"/>
<path d="M200.699 45.2932C200.699 46.6 201.87 47.1393 203.274 47.1393C204.674 47.1393 205.875 46.6 205.875 45.2932V32.2872C205.875 31.6909 206.105 31.4365 206.705 31.4365H209.792C210.393 31.4365 210.592 31.6909 210.592 32.2872V46.1176C210.592 48.5601 208.648 50.9719 203.269 50.9719C197.89 50.9719 195.978 48.5601 195.978 46.1176V32.2872C195.978 31.6909 196.208 31.4365 196.809 31.4365H199.9C200.5 31.4365 200.699 31.6909 200.699 32.2872V45.2932Z" fill="#000506"/>
<path d="M225.178 42.9078L227.983 49.8931C228.181 50.4062 227.81 50.7438 227.183 50.7438H224.096C223.553 50.7438 223.438 50.2878 223.266 49.8931L220.749 43.6182H218.602V49.8931C218.602 50.4895 218.404 50.7438 217.803 50.7438H214.712C214.111 50.7438 213.882 50.4895 213.882 49.8931V32.2872C213.882 31.6909 214.111 31.4365 214.712 31.4365H220.89C226.265 31.4365 228.155 33.8483 228.155 36.2908V38.7595C228.155 40.3776 227.325 41.9957 225.178 42.9078ZM218.602 35.269V39.7856H220.89C222.29 39.7856 223.491 39.2463 223.491 37.9395V37.1151C223.491 35.8084 222.29 35.269 220.89 35.269H218.602Z" fill="#000506"/>
<path d="M231.984 50.7438C231.383 50.7438 231.153 50.4895 231.153 49.8931V32.2872C231.153 31.6909 231.383 31.4365 231.984 31.4365H241.766C242.366 31.4365 242.622 31.6338 242.622 32.2302V34.4447C242.622 35.041 242.366 35.269 241.766 35.269H235.874V38.9612H241.306C241.907 38.9612 242.163 39.1586 242.163 39.7549V41.8291C242.163 42.4254 241.907 42.6534 241.306 42.6534H235.874V46.9113H242.053C242.653 46.9113 242.909 47.1086 242.909 47.705V49.9195C242.909 50.5158 242.653 50.7438 242.053 50.7438H231.984Z" fill="#000506"/>
<path d="M254.608 32.2873L259.784 49.8932C259.956 50.4326 259.757 50.7439 259.157 50.7439H255.981C255.381 50.7439 255.125 50.4326 254.979 49.8932L254.237 47.1657H249.489L248.748 49.8932C248.602 50.4326 248.346 50.7439 247.745 50.7439H244.857C244.256 50.7439 244.058 50.4326 244.23 49.8932L249.406 32.2873C249.578 31.7216 249.865 31.4366 250.465 31.4366H253.552C254.149 31.4322 254.436 31.7172 254.608 32.2873ZM252.806 41.9387C252.347 40.2066 251.949 36.2601 251.918 36.0058C251.861 36.4048 251.402 40.2943 250.947 41.9387L250.518 43.4735H253.208L252.806 41.9387Z" fill="#000506"/>
<path d="M266.103 45.2932C266.103 46.6 267.278 47.1393 268.678 47.1393C270.078 47.1393 271.279 46.6 271.279 45.2932V32.2872C271.279 31.6909 271.509 31.4365 272.109 31.4365H275.196C275.797 31.4365 275.996 31.6909 275.996 32.2872V46.1176C275.996 48.5601 274.052 50.9719 268.674 50.9719C263.295 50.9719 261.382 48.5601 261.382 46.1176V32.2872C261.382 31.6909 261.612 31.4365 262.213 31.4365H265.304C265.905 31.4365 266.103 31.6909 266.103 32.2872V45.2932Z" fill="#000506"/>
<path d="M112.569 76.9312C112.569 77.2513 112.454 77.4048 112.11 77.4048H110.529C110.185 77.4048 110.07 77.2513 110.07 76.9312V69.7397C110.052 69.7967 109.708 70.95 109.518 71.463L108.069 74.9842C107.937 75.2868 107.764 75.4578 107.442 75.4578H106.091C105.768 75.4578 105.596 75.2692 105.481 74.9842L103.86 71.178C103.671 70.779 103.441 69.9107 103.423 69.7792V76.9356C103.423 77.2557 103.308 77.4091 102.964 77.4091H101.458C101.114 77.4091 100.999 77.2557 100.999 76.9356V65.0126C100.999 64.6881 101.114 64.5391 101.458 64.5391H102.964C103.211 64.5391 103.308 64.6311 103.384 64.8022L106.298 71.4104C106.528 71.9235 106.775 72.7347 106.775 72.7347C106.775 72.7347 107.022 71.998 107.27 71.4279L110.092 64.7627C110.167 64.5917 110.304 64.5347 110.529 64.5347H112.11C112.454 64.5347 112.569 64.6838 112.569 65.0083V76.9312Z" fill="#000506"/>
<path d="M128.353 64.5303C128.697 64.5303 128.83 64.6443 128.83 64.9863V66.1396C128.83 66.4816 128.697 66.5956 128.353 66.5956H123.95V69.7397H128.03C128.375 69.7397 128.525 69.8537 128.525 70.1957V71.2745C128.525 71.6165 128.37 71.748 128.03 71.748H123.95V75.3438H128.565C128.887 75.3438 129.042 75.4578 129.042 75.7779V76.9531C129.042 77.2732 128.887 77.4091 128.565 77.4091H121.989C121.667 77.4091 121.512 77.2776 121.512 76.9355V74.6246H118.023L116.672 76.9355C116.539 77.1636 116.385 77.4091 116.12 77.4091H114.557C114.234 77.4091 114.04 77.2206 114.212 76.9355L121.362 64.9907C121.455 64.8416 121.649 64.5347 122.029 64.5347H128.353V64.5303ZM119.242 72.5944H121.512V68.5996C121.282 69.0732 121.053 69.5073 120.863 69.8274L119.242 72.5944Z" fill="#000506"/>
<path d="M133.714 72.5023V76.9136C133.714 77.2557 133.599 77.4048 133.255 77.4048H131.594C131.25 77.4048 131.135 77.2513 131.135 76.9136V65.0258C131.135 64.6838 131.25 64.5347 131.594 64.5347H135.6C139.049 64.5347 140.215 66.03 140.215 67.6217V69.4196C140.215 70.5378 139.645 71.5946 138.117 72.1471L140.175 76.918C140.307 77.2206 140.078 77.4091 139.738 77.4091H138.06C137.795 77.4091 137.715 77.2206 137.583 76.918L135.715 72.5067H135.6H133.714V72.5023ZM133.714 66.6526V70.3799H135.6C136.876 70.3799 137.658 69.9063 137.658 68.9592V68.069C137.658 67.1218 136.876 66.6483 135.6 66.6483H133.714V66.6526Z" fill="#000506"/>
<path d="M152.108 76.9312C152.28 77.1592 152.205 77.4048 151.86 77.4048H149.745C149.423 77.4048 149.228 77.1592 149.06 76.9312L145.474 71.9717H145.152V76.9312C145.152 77.2513 145.037 77.4048 144.693 77.4048H143.037C142.692 77.4048 142.577 77.2513 142.577 76.9312V65.0083C142.577 64.6838 142.692 64.5347 143.037 64.5347H144.693C145.037 64.5347 145.152 64.6838 145.152 65.0083V70.0993H145.457L148.848 65.0083C149.021 64.7408 149.268 64.5347 149.612 64.5347H151.383C151.728 64.5347 151.785 64.7627 151.613 65.0083L147.63 70.8579L152.108 76.9312Z" fill="#000506"/>
<path d="M160.516 77.4047C160.172 77.4047 160.022 77.2513 159.924 76.9312L156.36 65.0039C156.263 64.7013 156.378 64.5303 156.723 64.5303H158.533C158.856 64.5303 158.993 64.7013 159.085 65.0039L160.936 71.4411C161.223 72.4628 161.395 74.1861 161.395 74.1861C161.395 74.1861 161.625 72.4628 161.912 71.4586L163.762 65.0039C163.859 64.7013 163.992 64.5303 164.332 64.5303H165.992C166.315 64.5303 166.429 64.7013 166.337 65.0039L162.79 76.9312C162.693 77.2513 162.525 77.4047 162.181 77.4047H160.516Z" fill="#000506"/>
<path d="M168.412 77.4048C168.068 77.4048 167.953 77.2513 167.953 76.9136V65.0258C167.953 64.6838 168.068 64.5347 168.412 64.5347H174.931C175.253 64.5347 175.408 64.6487 175.408 64.9907V66.1834C175.408 66.5255 175.253 66.657 174.931 66.657H170.528V69.7222H174.608C174.953 69.7222 175.103 69.8362 175.103 70.1782V71.3139C175.103 71.634 174.953 71.77 174.608 71.77H170.528V75.2912H175.121C175.465 75.2912 175.597 75.4052 175.597 75.7472V76.9399C175.597 77.282 175.465 77.4135 175.121 77.4135H168.412V77.4048Z" fill="#000506"/>
<path d="M180.287 72.5023V76.9136C180.287 77.2557 180.173 77.4048 179.828 77.4048H178.168C177.823 77.4048 177.708 77.2513 177.708 76.9136V65.0258C177.708 64.6838 177.823 64.5347 178.168 64.5347H182.169C185.618 64.5347 186.784 66.03 186.784 67.6217V69.4196C186.784 70.5378 186.214 71.5946 184.686 72.1471L186.744 76.918C186.876 77.2206 186.647 77.4091 186.307 77.4091H184.629C184.364 77.4091 184.284 77.2206 184.152 76.918L182.284 72.5067H182.169H180.287V72.5023ZM180.287 66.6526V70.3799H182.173C183.449 70.3799 184.231 69.9063 184.231 68.9592V68.069C184.231 67.1218 183.449 66.6483 182.173 66.6483H180.287V66.6526Z" fill="#000506"/>
<path d="M189.553 77.4048C189.248 77.4048 189.151 77.2337 189.151 76.9136V65.0258C189.151 64.6838 189.266 64.5347 189.61 64.5347H193.766C197.215 64.5347 198.416 66.03 198.416 67.6217V74.3221C198.416 75.9138 197.215 77.4091 193.766 77.4091H189.553V77.4048ZM191.73 66.6526V75.2824H193.77C195.068 75.2824 195.85 74.8088 195.85 73.8616V68.069C195.85 67.1218 195.068 66.6483 193.77 66.6483H191.73V66.6526Z" fill="#000506"/>
<path d="M201.335 77.4048C200.991 77.4048 200.876 77.2513 200.876 76.9136V65.0258C200.876 64.6838 200.991 64.5347 201.335 64.5347H207.853C208.176 64.5347 208.33 64.6487 208.33 64.9907V66.1834C208.33 66.5255 208.176 66.657 207.853 66.657H203.451V69.7222H207.531C207.876 69.7222 208.026 69.8362 208.026 70.1782V71.3139C208.026 71.634 207.876 71.77 207.531 71.77H203.451V75.2912H208.043C208.388 75.2912 208.52 75.4052 208.52 75.7472V76.9399C208.52 77.282 208.388 77.4135 208.043 77.4135H201.335V77.4048Z" fill="#000506"/>
<path d="M219.905 76.9312C219.905 77.2513 219.79 77.4047 219.446 77.4047H217.94C217.693 77.4047 217.596 77.3477 217.503 77.1767L213.824 70.9105C213.307 70.0598 213.082 69.4327 213.06 69.3757V76.9268C213.06 77.2469 212.945 77.4004 212.601 77.4004H211.095C210.75 77.4004 210.636 77.2469 210.636 76.9268V65.0039C210.636 64.6794 210.75 64.5303 211.095 64.5303H212.601C212.808 64.5303 212.923 64.5873 213.003 64.7188L216.836 71.2481C217.158 71.7963 217.485 72.5724 217.485 72.5724V64.9995C217.485 64.675 217.6 64.5259 217.944 64.5259H219.45C219.795 64.5259 219.91 64.675 219.91 64.9995V76.9312H219.905Z" fill="#000506"/>
</g>
<defs>
<clipPath id="clip0_307_2250">
<rect width="276" height="83" fill="white"/>
</clipPath>
</defs>
</svg>
