<svg width="130" height="110" viewBox="0 0 130 110" fill="none" xmlns="http://www.w3.org/2000/svg">
<path d="M28.3508 31.515C32.2567 25.2315 37.6662 20.0547 44.0747 16.4674C50.4833 12.8802 57.6821 10.9992 65 11C72.3188 10.9983 79.5187 12.8788 85.9283 16.4661C92.3379 20.0534 97.7482 25.2307 101.655 31.515L110.809 25.63C105.925 17.7786 99.1629 11.3106 91.1528 6.82894C83.1428 2.34732 74.1456 -0.002 65 1.27753e-06C55.8553 -0.00107136 46.8592 2.34869 38.8502 6.83027C30.8412 11.3119 24.0799 17.7794 19.1967 25.63L28.3508 31.515ZM65 99C57.6821 99.0008 50.4833 97.1199 44.0747 93.5326C37.6662 89.9453 32.2567 84.7685 28.3508 78.485L19.1967 84.37C24.0799 92.2206 30.8412 98.6881 38.8502 103.17C46.8592 107.651 55.8553 110.001 65 110C74.1456 110.002 83.1428 107.653 91.1528 103.171C99.1629 98.6894 105.925 92.2214 110.809 84.37L101.655 78.485C97.7482 84.7693 92.3379 89.9465 85.9283 93.5339C79.5187 97.1212 72.3188 99.0017 65 99ZM65 33C66.4366 33 67.8143 33.5795 68.8302 34.6109C69.846 35.6424 70.4167 37.0413 70.4167 38.5C70.4167 39.9587 69.846 41.3576 68.8302 42.3891C67.8143 43.4205 66.4366 44 65 44C63.5634 44 62.1857 43.4205 61.1698 42.3891C60.154 41.3576 59.5833 39.9587 59.5833 38.5C59.5833 37.0413 60.154 35.6424 61.1698 34.6109C62.1857 33.5795 63.5634 33 65 33ZM65 55C69.3098 55 73.443 53.2616 76.4905 50.1673C79.5379 47.0729 81.25 42.8761 81.25 38.5C81.25 34.1239 79.5379 29.9271 76.4905 26.8327C73.443 23.7384 69.3098 22 65 22C60.6902 22 56.557 23.7384 53.5095 26.8327C50.462 29.9271 48.75 34.1239 48.75 38.5C48.75 42.8761 50.462 47.0729 53.5095 50.1673C56.557 53.2616 60.6902 55 65 55ZM65 71.5C62.1268 71.5 59.3713 72.6589 57.3397 74.7218C55.308 76.7847 54.1667 79.5826 54.1667 82.5H43.3333C43.3333 76.6652 45.6161 71.0695 49.6794 66.9436C53.7426 62.8178 59.2536 60.5 65 60.5C70.7464 60.5 76.2574 62.8178 80.3206 66.9436C84.3839 71.0695 86.6667 76.6652 86.6667 82.5H75.8333C75.8333 79.5826 74.692 76.7847 72.6603 74.7218C70.6287 72.6589 67.8732 71.5 65 71.5ZM16.25 49.5C14.8134 49.5 13.4357 50.0795 12.4198 51.1109C11.404 52.1424 10.8333 53.5413 10.8333 55C10.8333 56.4587 11.404 57.8576 12.4198 58.8891C13.4357 59.9205 14.8134 60.5 16.25 60.5C17.6866 60.5 19.0643 59.9205 20.0802 58.8891C21.096 57.8576 21.6667 56.4587 21.6667 55C21.6667 53.5413 21.096 52.1424 20.0802 51.1109C19.0643 50.0795 17.6866 49.5 16.25 49.5ZM0 55C0 50.6239 1.71205 46.4271 4.75951 43.3327C7.80698 40.2384 11.9402 38.5 16.25 38.5C20.5598 38.5 24.693 40.2384 27.7405 43.3327C30.788 46.4271 32.5 50.6239 32.5 55C32.5 59.3761 30.788 63.5729 27.7405 66.6673C24.693 69.7616 20.5598 71.5 16.25 71.5C11.9402 71.5 7.80698 69.7616 4.75951 66.6673C1.71205 63.5729 0 59.3761 0 55ZM108.333 55C108.333 53.5413 108.904 52.1424 109.92 51.1109C110.936 50.0795 112.313 49.5 113.75 49.5C115.187 49.5 116.564 50.0795 117.58 51.1109C118.596 52.1424 119.167 53.5413 119.167 55C119.167 56.4587 118.596 57.8576 117.58 58.8891C116.564 59.9205 115.187 60.5 113.75 60.5C112.313 60.5 110.936 59.9205 109.92 58.8891C108.904 57.8576 108.333 56.4587 108.333 55ZM113.75 38.5C109.44 38.5 105.307 40.2384 102.26 43.3327C99.212 46.4271 97.5 50.6239 97.5 55C97.5 59.3761 99.212 63.5729 102.26 66.6673C105.307 69.7616 109.44 71.5 113.75 71.5C118.06 71.5 122.193 69.7616 125.24 66.6673C128.288 63.5729 130 59.3761 130 55C130 50.6239 128.288 46.4271 125.24 43.3327C122.193 40.2384 118.06 38.5 113.75 38.5Z" fill="#FF8C42"/>
</svg>
