<svg width="109" height="110" viewBox="0 0 109 110" fill="none" xmlns="http://www.w3.org/2000/svg">
<path d="M54.5 0C84.5949 0 109 21.879 109 48.8895C108.993 56.9912 105.8 64.759 100.123 70.4873C94.4456 76.2156 86.7479 79.4362 78.7198 79.442H68.0051C62.9802 79.442 58.9199 83.5395 58.9199 88.6105C58.9199 90.9315 59.8301 93.071 61.2198 94.6605C62.675 96.3105 63.5851 98.45 63.5851 100.831C63.5851 105.908 59.405 110 54.5 110C24.4051 110 0 85.371 0 55C0 24.629 24.4051 0 54.5 0ZM48.0199 88.6105C48.0178 85.9613 48.5333 83.3377 49.5368 80.8898C50.5404 78.4418 52.0124 76.2176 53.8687 74.3444C55.7249 72.4711 57.9289 70.9856 60.3546 69.9728C62.7803 68.96 65.38 68.4398 68.0051 68.442H78.7198C83.8561 68.4362 88.7805 66.3753 92.4134 62.7111C96.0464 59.0469 98.0913 54.0784 98.1 48.895C98.1 28.2645 78.8506 11 54.5 11C43.2489 10.9896 32.4294 15.369 24.3036 23.2224C16.1779 31.0758 11.375 41.7952 10.8992 53.1394C10.4235 64.4836 14.3116 75.5742 21.7508 84.0924C29.1899 92.6106 39.6041 97.8969 50.8158 98.846C48.9915 95.7508 48.0258 92.2119 48.0199 88.6105ZM29.975 55C27.8069 55 25.7275 54.1308 24.1944 52.5836C22.6613 51.0365 21.8 48.938 21.8 46.75C21.8 44.562 22.6613 42.4635 24.1944 40.9164C25.7275 39.3692 27.8069 38.5 29.975 38.5C32.1431 38.5 34.2225 39.3692 35.7556 40.9164C37.2887 42.4635 38.15 44.562 38.15 46.75C38.15 48.938 37.2887 51.0365 35.7556 52.5836C34.2225 54.1308 32.1431 55 29.975 55ZM79.025 55C76.8568 55 74.7775 54.1308 73.2444 52.5836C71.7113 51.0365 70.85 48.938 70.85 46.75C70.85 44.562 71.7113 42.4635 73.2444 40.9164C74.7775 39.3692 76.8568 38.5 79.025 38.5C81.1931 38.5 83.2725 39.3692 84.8056 40.9164C86.3387 42.4635 87.2 44.562 87.2 46.75C87.2 48.938 86.3387 51.0365 84.8056 52.5836C83.2725 54.1308 81.1931 55 79.025 55ZM54.5 38.5C52.3319 38.5 50.2525 37.6308 48.7194 36.0836C47.1863 34.5365 46.325 32.438 46.325 30.25C46.325 28.062 47.1863 25.9635 48.7194 24.4164C50.2525 22.8692 52.3319 22 54.5 22C56.6681 22 58.7475 22.8692 60.2806 24.4164C61.8137 25.9635 62.675 28.062 62.675 30.25C62.675 32.438 61.8137 34.5365 60.2806 36.0836C58.7475 37.6308 56.6681 38.5 54.5 38.5Z" fill="#FF8C42"/>
</svg>
