<svg width="58" height="58" viewBox="0 0 58 58" fill="none" xmlns="http://www.w3.org/2000/svg">
<path d="M58 2.77659C54.3343 3.77712 50.7759 5.03866 47.3422 6.5351H47.3393C42.2264 2.35318 35.6607 -0.114794 28.5148 0.00410963C12.953 0.256417 0.256417 12.953 0.00410963 28.5148C-0.114794 35.6607 2.35318 42.2264 6.5351 47.3393C5.03866 50.7759 3.77712 54.3343 2.77659 58H8.80877C9.44098 55.8684 10.1689 53.7775 10.9896 51.73C16.1112 55.793 22.6335 58.1624 29.7126 57.9913C45.1004 57.623 57.623 45.1004 57.9913 29.7126C58.1624 22.6335 55.793 16.1112 51.73 10.9896C53.7775 10.1689 55.8684 9.44098 58 8.80877V2.77659ZM9.40908 41.4347C7.11512 37.8328 5.79268 33.5552 5.79848 28.9644C5.81878 16.2475 16.2475 5.81878 28.9644 5.79848C33.5552 5.79268 37.8328 7.11512 41.4347 9.40908C27.8855 16.7231 16.7231 27.8855 9.40908 41.4347ZM51.7242 33.7785C49.9233 42.8036 42.8036 49.9233 33.7785 51.7242C25.9628 53.2816 18.6488 50.9122 13.4605 46.2257C20.5309 32.0674 32.0674 20.5309 46.2257 13.4605C50.9122 18.6488 53.2816 25.9628 51.7242 33.7785Z" fill="#FEF5EE"/>
</svg>
