<svg width="104" height="110" viewBox="0 0 104 110" fill="none" xmlns="http://www.w3.org/2000/svg">
<path d="M104 0V11.5789C104 67.3142 72.956 92.6316 34.6667 92.6316H12.9596C11.98 98.3681 11.5102 104.18 11.5556 110H0C0 102.109 0.670223 94.9474 1.99911 88.3937C0.670223 80.9021 0.00385185 70.7358 0 57.8947C0 25.9195 25.8671 0 57.7778 0C69.3333 0 80.8889 5.78947 104 0ZM57.7778 11.5789C45.5189 11.5789 33.7621 16.4586 25.0937 25.1445C16.4254 33.8304 11.5556 45.611 11.5556 57.8947C11.5556 59.9905 11.5748 62.0091 11.6133 63.9505C18.8587 52.4989 29.4724 43.45 43.3564 35.5011L49.088 45.5516C32.5982 55 21.6551 65.7337 16.0391 81.0526H34.6667C69.42 81.0526 91.6991 58.0511 92.4271 13.8253C84.5 14.5953 77.1333 14.1032 68.0449 12.7368C61.4004 11.7353 60.0947 11.5789 57.7778 11.5789Z" fill="#FF8C42"/>
</svg>
