<svg width="221" height="83" viewBox="0 0 221 83" fill="none" xmlns="http://www.w3.org/2000/svg">
<g clip-path="url(#clip0_307_2278)">
<path d="M108.612 26.311C106.979 26.8741 105.987 27.3734 102.268 27.3734C95.9858 27.3734 92.2813 22.9357 92.2813 16.2487C92.2813 10.1233 94.7952 5.68555 101.201 5.68555C106.164 5.68555 109.431 8.18523 109.431 11.8109H104.155C104.155 10.0126 103.715 7.24871 100.95 7.24871C97.9348 7.24871 97.2441 10.5618 97.2441 14.8114C97.2441 21.3739 100.259 24.9983 104.344 24.9983C105.725 24.9983 107.548 24.7493 108.616 24.373V26.3097L108.612 26.311ZM111.501 16.5627C111.501 9.1259 114.642 5.6897 121.176 5.6897C127.645 5.6897 130.85 10.1274 130.85 16.5627C130.85 23.8114 127.835 27.3748 121.176 27.3748C113.952 27.3748 111.501 22.7503 111.501 16.5627ZM121.176 25.813C125.572 25.813 125.949 20.9382 125.949 16.5004C125.949 12.3753 125.572 7.1256 121.176 7.1256C116.714 7.1256 116.402 12.5621 116.402 16.5004C116.402 20.2354 116.716 25.813 121.176 25.813ZM133.552 25.7508C134.432 25.001 138.389 21.6879 138.389 19.1108C138.389 18.0484 137.571 17.3609 136.503 17.3609C135.26 17.3609 134.745 18.2988 134.57 18.7995H133.815C134.067 18.0498 134.758 16.4866 136.831 16.4866C138.84 16.4866 140.223 17.2986 140.223 19.3612C140.223 22.049 135.889 24.9858 135.009 25.7992H138.324C139.769 25.7992 139.894 25.1739 139.958 24.2997H140.459V26.8616H133.55V25.737L133.552 25.7508ZM78.7727 47.5618C78.7727 44.4355 78.0185 43.6885 75.1925 43.6248V42.7492L83.2313 41.3105V46.9822H83.2935C83.9841 45.419 86.3088 41.3105 90.7688 41.3105C94.8518 41.3105 96.1557 44.1851 96.1557 47.5604V62.5004H91.715V50.9385C91.715 47.4387 91.715 44.2985 88.6997 44.2985C85.7466 44.2985 83.172 48.4236 83.172 51.6108V62.4838H78.7105V47.5618H78.7727ZM117.468 61.752C116.589 62.0647 114.264 62.9417 111.186 62.9417C104.34 62.9417 100.192 58.8166 100.192 51.377C100.192 44.3151 103.584 41.251 109.615 41.251C117.278 41.251 117.906 46.7512 117.906 49.7516H105.155C105.155 54.1894 106.978 60.5001 113.32 60.5001C115.205 60.5001 116.774 60.063 117.529 59.7504V61.7507H117.466L117.468 61.752ZM113.463 48.0017C113.463 47.0016 113.399 42.8142 109.505 42.8142C106.19 42.8142 105.233 46.314 105.233 48.0017H113.463ZM135.763 57.4361H135.7C134.945 59.3727 133.123 62.9362 128.789 62.9362C122.822 62.9362 122.822 57.1234 122.822 53.8753V47.5632C122.822 44.4369 122.131 43.6899 119.369 43.6262V42.7506L127.284 41.3119V54.6888C127.284 58.7516 128.803 59.9385 130.927 59.9385C133.817 59.9385 135.827 56.126 135.827 52.4381V47.5632C135.827 44.4369 135.072 43.6899 132.373 43.6262V42.7506L140.288 41.3119V62.4991H135.827V57.4361H135.763ZM156.932 62.6236C155.927 62.8117 154.922 62.9971 153.917 62.9971C149.645 62.9971 147.132 62.3095 147.132 57.2465V43.5751H143.614V41.7767H147.132V38.2769L151.594 34.3399V41.8404H157.436V43.6387H151.594V56.5756C151.594 59.702 151.845 61.0756 155.237 61.0756C155.79 61.0756 156.37 61.0134 156.87 60.8875V62.6374H156.933L156.932 62.6236ZM162.775 47.5618C162.775 44.4355 162.084 43.6885 159.258 43.6248V42.7492L167.297 41.3105V47.1717H167.359C167.988 45.0967 169.37 41.2967 172.95 41.2967C173.779 41.2967 174.583 41.359 175.337 41.5457V45.7953C174.647 45.5463 173.818 45.2323 173.076 45.2323C168.553 45.2323 167.233 48.7321 167.233 51.8723V62.4963H162.772V47.5618H162.775ZM188.784 59.8735C187.966 60.8114 186.459 62.9998 183.005 62.9998C179.487 62.9998 177.038 60.5001 177.038 57.8746C177.038 51.6247 185.958 51.1239 188.785 50.9994V48.7487C188.785 45.9364 188.785 42.8114 185.958 42.8114C183.006 42.8114 182.817 45.3734 182.817 47.3737H177.478C177.98 44.4369 179.412 41.3119 185.896 41.3119C192.24 41.3119 193.244 44.5628 193.244 48.9991V62.5004H188.782V59.8749L188.784 59.8735ZM188.784 52.6248C187.15 52.6871 181.937 52.8738 181.937 57.1248C181.937 59.1998 182.941 60.6246 184.637 60.6246C187.213 60.6246 188.784 58.2495 188.784 55.249V52.6248ZM198.331 37.3736C198.331 34.1864 197.578 33.4366 194.94 33.3107V32.4364L202.791 31.3118V62.4991H198.33V37.3749L198.331 37.3736ZM219.627 62.6222C218.621 62.8103 217.616 62.9957 216.612 62.9957C212.34 62.9957 209.827 62.3082 209.827 57.2452V43.5751H206.309V41.7767H209.827V38.2769L214.288 34.3399V41.8404H220.131V43.6387H214.288V56.5756C214.288 59.702 214.54 61.0756 217.932 61.0756C218.482 61.0783 219.03 61.0152 219.565 60.8875V62.6374H219.628L219.627 62.6222ZM129.42 74.1232C129.107 72.9986 128.918 72.7482 127.724 72.6845V72.311H130.739L132.373 78.6232H132.437L134.572 72.311H135.401L137.788 78.6854H137.85L139.231 72.311H140.173L138.24 80.8116H136.858L134.787 74.9988H134.723L132.669 80.8144H131.288L129.404 74.1273L129.42 74.1232ZM148.33 80.5004C147.953 80.6387 147.011 80.9984 145.755 80.9984C142.928 80.9984 141.231 79.3107 141.231 76.248C141.231 73.3734 142.613 72.1229 145.063 72.1229C148.204 72.1229 148.455 74.3736 148.455 75.6227H143.241C143.241 77.4211 143.995 80.0605 146.556 80.0605C147.31 80.0605 147.937 79.8723 148.252 79.7478V80.4976H148.314L148.33 80.5004ZM146.697 74.8287C146.697 74.3916 146.633 72.7039 145.063 72.7039C143.682 72.7039 143.305 74.1426 143.305 74.8287H146.697ZM150.15 70.4532C150.15 69.2027 149.835 68.8901 148.769 68.8278V68.4543L152.036 68.0172V73.4537H152.099C152.413 72.8284 152.978 72.0786 154.36 72.0786C156.985 72.0786 157.627 74.4538 157.627 76.7031C157.627 78.9524 156.685 80.9527 154.312 80.9527C153.069 80.9527 152.378 80.1407 151.925 79.7022L150.682 80.7023H150.179V70.4657L150.15 70.4532ZM151.973 76.7654C151.973 77.7033 152.112 80.0162 153.67 80.0162C155.428 80.0162 155.554 77.8914 155.554 76.4541C155.554 75.2036 155.366 73.0788 153.795 73.0788C152.225 73.0788 151.972 74.9532 151.972 76.0156L151.973 76.7654ZM164.159 73.7635C163.907 73.5754 163.026 72.8879 161.96 72.8879C161.407 72.8879 160.717 73.076 160.717 73.888C160.717 75.6379 164.722 75.6379 164.722 78.4503C164.722 80.2486 163.214 80.95 161.407 80.95C160.275 80.95 159.474 80.701 159.083 80.6373V79.1987C159.585 79.5722 160.464 80.1366 161.533 80.1366C162.663 80.1366 163.102 79.5735 163.102 78.886C163.102 77.0877 159.097 77.0116 159.097 74.4483C159.097 73.1341 159.976 72.0108 162.174 72.0108C163.116 72.0108 163.934 72.2599 164.246 72.3235V73.7621H164.184L164.159 73.7635ZM167.111 74.7001C167.111 73.4495 166.797 73.1369 165.729 73.0746V72.7011L168.996 72.1381V80.8255H167.111V74.7001ZM166.923 69.5126C166.923 68.8873 167.425 68.3879 168.053 68.3879C168.68 68.3879 169.246 68.8859 169.246 69.5126C169.246 70.1392 168.693 70.6372 168.053 70.6372C167.904 70.6387 167.757 70.6106 167.62 70.5547C167.483 70.4988 167.358 70.4161 167.253 70.3115C167.148 70.2069 167.064 70.0824 167.008 69.9452C166.951 69.808 166.922 69.661 166.923 69.5126ZM176.094 80.8282C175.717 80.8905 175.265 80.9666 174.851 80.9666C173.093 80.9666 172.089 80.7176 172.089 78.5914V72.9667H170.644V72.217H172.089V70.7783L173.912 69.1529V72.2156H176.299V72.9653H173.912V78.2774C173.912 79.5279 173.975 80.0757 175.42 80.0757C175.608 80.0757 175.859 80.0757 176.111 80.0134V80.8255L176.094 80.8282ZM184.198 80.5142C183.821 80.6525 182.879 81.0122 181.622 81.0122C178.796 81.0122 177.1 79.3245 177.1 76.2618C177.1 73.3873 178.481 72.1367 180.931 72.1367C184.072 72.1367 184.324 74.3874 184.324 75.6366H179.109C179.109 77.4349 179.864 80.0743 182.424 80.0743C183.004 80.074 183.579 79.968 184.121 79.7617V80.5114H184.184L184.198 80.5142ZM182.502 74.8425C182.502 74.4054 182.438 72.7177 180.868 72.7177C179.487 72.7177 179.109 74.1564 179.109 74.8425H182.502ZM192.425 72.2142L201.283 76.5897L192.408 80.925V72.1755L192.425 72.2142Z" fill="#000506"/>
<path opacity="0.25" d="M1.50557 79.6248C1.50557 81.4993 13.1274 83.0002 27.4496 83.0002C41.7718 83.0002 53.3936 81.5006 53.3936 79.6248C53.3936 77.749 41.7718 76.2495 27.4496 76.2495C13.126 76.3118 1.50557 77.8127 1.50557 79.6248Z" fill="#000506"/>
<path d="M0 55.1258C0 64.7497 7.79025 72.4867 17.4631 72.4867C26.4454 72.4867 33.7964 65.736 34.8006 57.1123C35.8584 59.5147 37.592 61.5565 39.7896 62.9883C41.9871 64.42 44.5536 65.1796 47.1752 65.1744C54.5884 65.1744 60.6189 59.1749 60.6189 51.7976C60.6189 45.7358 56.5359 40.5483 50.9446 38.9229C53.6221 35.9364 55.0994 32.0621 55.0912 28.0485C55.0912 18.9876 47.678 11.6103 38.5714 11.6103C37.6294 11.6103 36.6377 11.6726 35.744 11.8593C34.9556 8.48205 33.0487 5.47157 30.334 3.31814C27.6192 1.16471 24.2565 -0.00481883 20.7933 1.49237e-05C12.376 1.49237e-05 5.52776 6.81293 5.52776 15.2499C5.52776 18.1881 6.3427 20.8745 7.78887 23.1874C3.315 24.3743 0 28.3749 0 33.1862C0 37.1868 2.26111 40.6244 5.5913 42.3743C2.13541 45.5629 0 50.1251 0 55.1258Z" fill="#000506"/>
<path d="M4.7736 43.1877C1.82325 46.314 0 50.5 0 55.1258C0 64.7497 7.79025 72.4867 17.4631 72.4867C24.1843 72.4867 30.027 68.6742 32.9166 63.1118C29.7121 66.4249 25.2534 68.5483 20.227 68.5483C10.6163 68.5483 2.82604 60.7989 2.82604 51.2359C2.82604 48.2991 3.51666 45.6113 4.75979 43.1738L4.7736 43.1877Z" fill="#000506"/>
<path d="M4.7736 43.1877C1.82325 46.314 0 50.5 0 55.1258C0 64.7497 7.79025 72.4867 17.4631 72.4867C24.1843 72.4867 30.027 68.6742 32.9166 63.1118C29.7121 66.4249 25.2534 68.5483 20.227 68.5483C10.6163 68.5483 2.82604 60.7989 2.82604 51.2359C2.82604 48.2991 3.51666 45.6113 4.75979 43.1738L4.7736 43.1877Z" fill="#000506"/>
<path d="M6.9104 8.87547C9.73782 5.62463 13.883 3.49983 18.5958 3.49983C25.8833 3.49983 31.9759 8.56283 33.5464 15.3135C34.4884 15.1254 35.4305 15.0645 36.3738 15.0645C45.4818 15.0645 52.8936 22.4377 52.8936 31.5027C52.8936 34.0023 52.3273 36.3775 51.3231 38.5023C53.7099 35.6278 55.1547 32.0007 55.1547 27.989C55.1547 18.9282 47.7429 11.5508 38.635 11.5508C37.6929 11.5508 36.7012 11.6131 35.8089 11.7998C34.9841 8.4346 33.0567 5.44343 30.3347 3.30438C27.6127 1.16533 24.2533 0.00188448 20.7933 0C14.6371 0 9.36074 3.62433 6.91178 8.87547H6.9104ZM32.5395 60.6121C32.2881 62.6124 31.7853 64.4246 30.9069 66.1731C31.9099 64.9918 32.7354 63.6702 33.3572 62.25C33.0601 61.7211 32.7878 61.1787 32.5409 60.6246L32.5395 60.6121Z" fill="#000506"/>
<path d="M46.9252 31.1872L37.9429 37.6888C35.1155 40.1263 32.3516 43.1253 31.2218 47.2518L34.6749 47.9393C34.9263 44.813 37.6902 42.4392 40.0148 39.75C42.4016 36.9999 44.287 33.7505 46.9252 31.1733V31.1872Z" fill="#000506"/>
<path d="M22.5517 19.6255C28.8336 27.8148 29.0214 39.4998 30.2148 49.1251C31.2204 57.8124 30.2784 66.9383 27.0103 74.3751C25.4399 77.5014 21.4826 80.0606 21.1055 80.8767L34.4857 80.8145C38.3808 69.6275 37.6902 58.5013 34.9249 48.1899C32.0353 38.0639 31.9096 23.9401 22.5489 19.6269L22.5517 19.6255Z" fill="#000506"/>
<path d="M14.6357 45.4369C18.1538 46.4993 21.984 46.3748 25.5034 47.7499C28.9565 49.1249 32.2881 52.1253 34.6749 55.6874L31.6583 57.436C30.4151 54.5614 27.5753 52.1862 24.4979 50.374C21.4177 48.4996 18.0889 47.1246 14.6357 45.4369Z" fill="#000506"/>
</g>
<defs>
<clipPath id="clip0_307_2278">
<rect width="221" height="83" fill="white"/>
</clipPath>
</defs>
</svg>
