<svg width="185" height="84" viewBox="0 0 185 84" fill="none" xmlns="http://www.w3.org/2000/svg">
<path d="M64.2915 73.4639C64.9393 73.4639 65.4731 73.542 65.893 73.6982C66.3162 73.8545 66.6303 74.0905 66.8354 74.4062C67.0405 74.722 67.143 75.1208 67.143 75.6025C67.143 75.9281 67.0812 76.2129 66.9575 76.457C66.8338 76.7012 66.671 76.9079 66.4692 77.0771C66.2674 77.2464 66.0493 77.3848 65.8149 77.4922L67.9145 80.6025H66.2348L64.5307 77.8633H63.7251V80.6025H62.2114V73.4639H64.2915ZM64.1841 74.7041H63.7251V76.6328H64.2134C64.7147 76.6328 65.0727 76.5498 65.2876 76.3838C65.5057 76.2145 65.6147 75.9671 65.6147 75.6416C65.6147 75.3031 65.4975 75.0622 65.2632 74.9189C65.032 74.7757 64.6723 74.7041 64.1841 74.7041ZM72.9243 80.6025H68.813V73.4639H72.9243V74.7041H70.3266V76.2715H72.7436V77.5117H70.3266V79.3525H72.9243V80.6025ZM77.1284 76.5938H79.9604V80.2949C79.5861 80.4186 79.1971 80.5179 78.7934 80.5928C78.3898 80.6644 77.9324 80.7002 77.4214 80.7002C76.7117 80.7002 76.1095 80.5602 75.6147 80.2803C75.1199 80.0003 74.744 79.5869 74.4868 79.04C74.2296 78.4932 74.1011 77.821 74.1011 77.0234C74.1011 76.2747 74.2443 75.627 74.5307 75.0801C74.8205 74.5332 75.242 74.11 75.7954 73.8105C76.352 73.5111 77.0307 73.3613 77.8315 73.3613C78.2091 73.3613 78.5818 73.402 78.9497 73.4834C79.3175 73.5648 79.6512 73.6706 79.9507 73.8008L79.4477 75.0117C79.2296 74.901 78.9806 74.8083 78.7007 74.7334C78.4207 74.6585 78.1277 74.6211 77.8218 74.6211C77.3823 74.6211 76.9998 74.722 76.6743 74.9238C76.352 75.1257 76.1014 75.4089 75.9223 75.7734C75.7466 76.1348 75.6587 76.5612 75.6587 77.0527C75.6587 77.5182 75.7221 77.9316 75.8491 78.293C75.9761 78.651 76.1762 78.9326 76.4497 79.1377C76.7231 79.3395 77.0796 79.4404 77.519 79.4404C77.7339 79.4404 77.9145 79.4307 78.061 79.4111C78.2108 79.3883 78.3507 79.3656 78.4809 79.3428V77.8535H77.1284V76.5938ZM81.3374 79.9043C81.3374 79.5983 81.4204 79.3835 81.5864 79.2598C81.7557 79.1361 81.9591 79.0742 82.1968 79.0742C82.4279 79.0742 82.6264 79.1361 82.7925 79.2598C82.9617 79.3835 83.0464 79.5983 83.0464 79.9043C83.0464 80.1973 82.9617 80.4089 82.7925 80.5391C82.6264 80.6693 82.4279 80.7344 82.1968 80.7344C81.9591 80.7344 81.7557 80.6693 81.5864 80.5391C81.4204 80.4089 81.3374 80.1973 81.3374 79.9043ZM90.8491 80.6025H88.9253L85.8198 75.2021H85.7759C85.7889 75.4268 85.8003 75.653 85.81 75.8809C85.8198 76.1087 85.8296 76.3366 85.8393 76.5645C85.8491 76.7891 85.8589 77.0153 85.8686 77.2432V80.6025H84.5161V73.4639H86.4253L89.5259 78.8105H89.56C89.5535 78.5892 89.5454 78.3695 89.5356 78.1514C89.5259 77.9333 89.5161 77.7152 89.5063 77.4971C89.4998 77.279 89.4933 77.0609 89.4868 76.8428V73.4639H90.8491V80.6025ZM94.7309 73.4639C95.3787 73.4639 95.9126 73.542 96.3325 73.6982C96.7557 73.8545 97.0698 74.0905 97.2749 74.4062C97.48 74.722 97.5825 75.1208 97.5825 75.6025C97.5825 75.9281 97.5206 76.2129 97.3969 76.457C97.2733 76.7012 97.1105 76.9079 96.9087 77.0771C96.7068 77.2464 96.4887 77.3848 96.2544 77.4922L98.354 80.6025H96.6743L94.9702 77.8633H94.1645V80.6025H92.6509V73.4639H94.7309ZM94.6235 74.7041H94.1645V76.6328H94.6528C95.1541 76.6328 95.5122 76.5498 95.727 76.3838C95.9451 76.2145 96.0542 75.9671 96.0542 75.6416C96.0542 75.3031 95.937 75.0622 95.7026 74.9189C95.4715 74.7757 95.1118 74.7041 94.6235 74.7041ZM98.9253 79.9043C98.9253 79.5983 99.0083 79.3835 99.1743 79.2598C99.3436 79.1361 99.547 79.0742 99.7846 79.0742C100.016 79.0742 100.214 79.1361 100.38 79.2598C100.55 79.3835 100.634 79.5983 100.634 79.9043C100.634 80.1973 100.55 80.4089 100.38 80.5391C100.214 80.6693 100.016 80.7344 99.7846 80.7344C99.547 80.7344 99.3436 80.6693 99.1743 80.5391C99.0083 80.4089 98.9253 80.1973 98.9253 79.9043ZM106.596 80.6025H101.606V79.5527L103.398 77.7412C103.759 77.3701 104.049 77.0609 104.267 76.8135C104.488 76.5628 104.648 76.335 104.746 76.1299C104.846 75.9248 104.897 75.7051 104.897 75.4707C104.897 75.1875 104.817 74.9759 104.658 74.8359C104.501 74.6927 104.291 74.6211 104.028 74.6211C103.751 74.6211 103.483 74.6846 103.222 74.8115C102.962 74.9385 102.69 75.1191 102.407 75.3535L101.586 74.3818C101.791 74.2061 102.008 74.04 102.236 73.8838C102.467 73.7275 102.734 73.6022 103.037 73.5078C103.343 73.4102 103.709 73.3613 104.135 73.3613C104.604 73.3613 105.006 73.446 105.341 73.6152C105.68 73.7845 105.94 74.0156 106.123 74.3086C106.305 74.5983 106.396 74.9271 106.396 75.2949C106.396 75.6888 106.318 76.0485 106.162 76.374C106.005 76.6995 105.777 77.0218 105.478 77.3408C105.182 77.6598 104.824 78.013 104.404 78.4004L103.486 79.2646V79.333H106.596V80.6025ZM109.79 73.3711C110.2 73.3711 110.577 73.4346 110.922 73.5615C111.271 73.6885 111.549 73.8805 111.757 74.1377C111.966 74.3916 112.07 74.7106 112.07 75.0947C112.07 75.3812 112.013 75.6318 111.899 75.8467C111.788 76.0615 111.637 76.2503 111.445 76.4131C111.253 76.5726 111.035 76.7126 110.791 76.833C111.044 76.9665 111.285 77.1227 111.513 77.3018C111.741 77.4775 111.927 77.6842 112.07 77.9219C112.216 78.1595 112.29 78.4362 112.29 78.752C112.29 79.1491 112.184 79.4941 111.972 79.7871C111.761 80.0768 111.468 80.3014 111.093 80.4609C110.719 80.6204 110.284 80.7002 109.79 80.7002C109.256 80.7002 108.802 80.6237 108.427 80.4707C108.053 80.3177 107.768 80.0996 107.573 79.8164C107.377 79.5299 107.28 79.1882 107.28 78.791C107.28 78.4655 107.34 78.1823 107.46 77.9414C107.584 77.7005 107.75 77.4938 107.958 77.3213C108.167 77.1455 108.396 76.9958 108.647 76.8721C108.435 76.7386 108.242 76.5872 108.066 76.418C107.893 76.2487 107.755 76.055 107.651 75.8369C107.55 75.6188 107.499 75.3682 107.499 75.085C107.499 74.7074 107.605 74.3916 107.817 74.1377C108.032 73.8838 108.313 73.6934 108.662 73.5664C109.01 73.4362 109.386 73.3711 109.79 73.3711ZM108.676 78.7031C108.676 78.9603 108.767 79.1735 108.95 79.3428C109.135 79.5088 109.409 79.5918 109.77 79.5918C110.144 79.5918 110.424 79.512 110.61 79.3525C110.795 79.1898 110.888 78.9766 110.888 78.7129C110.888 78.5306 110.834 78.3711 110.727 78.2344C110.623 78.0977 110.491 77.9756 110.332 77.8682C110.172 77.7575 110.011 77.6549 109.848 77.5605L109.716 77.4922C109.508 77.5866 109.326 77.6924 109.169 77.8096C109.016 77.9268 108.896 78.0586 108.808 78.2051C108.72 78.3516 108.676 78.5176 108.676 78.7031ZM109.78 74.4746C109.532 74.4746 109.327 74.5381 109.165 74.665C109.002 74.792 108.92 74.971 108.92 75.2021C108.92 75.3649 108.959 75.5081 109.038 75.6318C109.119 75.7523 109.225 75.8581 109.355 75.9492C109.488 76.0404 109.633 76.125 109.79 76.2031C109.939 76.1315 110.079 76.0518 110.209 75.9639C110.34 75.876 110.445 75.7702 110.527 75.6465C110.608 75.5228 110.649 75.3747 110.649 75.2021C110.649 74.971 110.566 74.792 110.4 74.665C110.237 74.5381 110.03 74.4746 109.78 74.4746ZM115.512 73.3711C115.922 73.3711 116.3 73.4346 116.645 73.5615C116.993 73.6885 117.272 73.8805 117.48 74.1377C117.688 74.3916 117.792 74.7106 117.792 75.0947C117.792 75.3812 117.735 75.6318 117.622 75.8467C117.511 76.0615 117.36 76.2503 117.167 76.4131C116.975 76.5726 116.757 76.7126 116.513 76.833C116.767 76.9665 117.008 77.1227 117.236 77.3018C117.464 77.4775 117.649 77.6842 117.792 77.9219C117.939 78.1595 118.012 78.4362 118.012 78.752C118.012 79.1491 117.906 79.4941 117.695 79.7871C117.483 80.0768 117.19 80.3014 116.816 80.4609C116.442 80.6204 116.007 80.7002 115.512 80.7002C114.978 80.7002 114.524 80.6237 114.15 80.4707C113.776 80.3177 113.491 80.0996 113.295 79.8164C113.1 79.5299 113.002 79.1882 113.002 78.791C113.002 78.4655 113.063 78.1823 113.183 77.9414C113.307 77.7005 113.473 77.4938 113.681 77.3213C113.889 77.1455 114.119 76.9958 114.37 76.8721C114.158 76.7386 113.964 76.5872 113.789 76.418C113.616 76.2487 113.478 76.055 113.374 75.8369C113.273 75.6188 113.222 75.3682 113.222 75.085C113.222 74.7074 113.328 74.3916 113.54 74.1377C113.754 73.8838 114.036 73.6934 114.384 73.5664C114.733 73.4362 115.109 73.3711 115.512 73.3711ZM114.399 78.7031C114.399 78.9603 114.49 79.1735 114.672 79.3428C114.858 79.5088 115.131 79.5918 115.493 79.5918C115.867 79.5918 116.147 79.512 116.332 79.3525C116.518 79.1898 116.611 78.9766 116.611 78.7129C116.611 78.5306 116.557 78.3711 116.45 78.2344C116.346 78.0977 116.214 77.9756 116.054 77.8682C115.895 77.7575 115.734 77.6549 115.571 77.5605L115.439 77.4922C115.231 77.5866 115.048 77.6924 114.892 77.8096C114.739 77.9268 114.619 78.0586 114.531 78.2051C114.443 78.3516 114.399 78.5176 114.399 78.7031ZM115.502 74.4746C115.255 74.4746 115.05 74.5381 114.887 74.665C114.724 74.792 114.643 74.971 114.643 75.2021C114.643 75.3649 114.682 75.5081 114.76 75.6318C114.842 75.7523 114.947 75.8581 115.078 75.9492C115.211 76.0404 115.356 76.125 115.512 76.2031C115.662 76.1315 115.802 76.0518 115.932 75.9639C116.062 75.876 116.168 75.7702 116.249 75.6465C116.331 75.5228 116.372 75.3747 116.372 75.2021C116.372 74.971 116.289 74.792 116.123 74.665C115.96 74.5381 115.753 74.4746 115.502 74.4746ZM121.372 76.042C121.808 76.042 122.195 76.125 122.534 76.291C122.875 76.457 123.144 76.7012 123.339 77.0234C123.535 77.3457 123.632 77.7428 123.632 78.2148C123.632 78.7292 123.525 79.1735 123.31 79.5479C123.098 79.9189 122.781 80.2038 122.358 80.4023C121.938 80.6009 121.414 80.7002 120.786 80.7002C120.411 80.7002 120.058 80.6676 119.726 80.6025C119.397 80.5407 119.109 80.4447 118.862 80.3145V79.0107C119.109 79.141 119.405 79.2516 119.75 79.3428C120.099 79.4307 120.426 79.4746 120.732 79.4746C121.031 79.4746 121.284 79.4355 121.489 79.3574C121.694 79.276 121.848 79.1523 121.953 78.9863C122.06 78.8171 122.114 78.6022 122.114 78.3418C122.114 77.9935 121.997 77.7266 121.762 77.541C121.528 77.3555 121.168 77.2627 120.683 77.2627C120.498 77.2627 120.304 77.2806 120.102 77.3164C119.903 77.3522 119.737 77.388 119.604 77.4238L119.003 77.1016L119.272 73.4639H123.144V74.7432H120.595L120.463 76.1445C120.574 76.1217 120.694 76.099 120.825 76.0762C120.955 76.0534 121.137 76.042 121.372 76.042Z" fill="#000506"/>
<g clip-path="url(#clip0_307_2290)">
<mask id="mask0_307_2290" style="mask-type:luminance" maskUnits="userSpaceOnUse" x="3" y="1" width="179" height="63">
<path d="M181.754 1.62305H3.24561V63.3708H181.754V1.62305Z" fill="white"/>
</mask>
<g mask="url(#mask0_307_2290)">
<path d="M118.708 21.9892C119.236 23.8149 119.723 25.4782 120.209 27.1416C120.25 27.3039 120.453 27.4662 120.615 27.5067C121.67 27.7907 122.765 27.9936 123.982 28.2776C123.617 24.9102 121.305 23.4903 118.708 21.9892ZM111.446 10.5484C111.609 10.7513 111.771 10.9541 111.933 11.157C113.313 13.0638 115.016 14.8488 116.031 16.9179C117.086 19.1087 118.992 19.6361 120.818 20.5692C118.465 16.5528 115.422 13.1449 111.446 10.5484ZM67.3871 21.9081C63.8981 23.328 61.7478 25.8434 61.9101 28.2776C63.0867 27.9936 64.2632 27.7096 65.4397 27.4256C65.602 27.385 65.8049 27.1416 65.8454 26.9388C66.3323 25.3159 66.8191 23.6931 67.3871 21.9081ZM75.42 9.53415C71.0384 12.3741 67.5494 16.066 64.75 20.7721C66.2511 20.0418 67.4682 19.4738 68.6853 18.8653C68.8882 18.7842 69.0099 18.5407 69.1316 18.3379C70.795 15.0923 72.8235 12.1306 75.42 9.53415ZM86.0494 5.35543C80.0856 7.78964 75.4606 11.7655 72.0932 17.4859C73.716 17.0802 75.0954 16.7962 76.4342 16.3905C76.9617 16.2282 77.4485 15.782 77.7731 15.3357C79.477 13.0638 81.0187 10.7107 82.7632 8.47933C83.6963 7.30279 84.954 6.41025 86.0494 5.35543ZM97.0033 14.5649C96.1108 12.0901 95.4617 9.65586 93.92 7.62736C93.3926 6.89709 92.7029 6.93766 92.1755 7.66793C90.7149 9.737 90.147 12.1306 89.4573 14.5649H97.0033ZM67.9551 26.8982C69.9024 26.6548 71.5253 26.4925 73.0669 26.1679C73.4321 26.0868 73.8783 25.6405 74 25.2348C74.568 23.5714 75.0549 21.9081 75.5823 20.2447C75.7446 19.7578 75.9068 19.271 76.1503 18.5813C74.284 19.1899 72.6206 19.6767 70.9978 20.2041C70.7544 20.2852 70.4704 20.4881 70.3893 20.6909C69.6185 22.6789 68.8476 24.6668 67.9551 26.8982ZM114.043 17.6482C110.513 11.9278 106.01 7.78964 99.8838 5.31486C99.9244 5.51771 99.9244 5.59885 99.9649 5.63942C103.454 8.31705 106.091 11.7249 108.12 15.5791C108.282 15.9037 108.606 16.2282 108.931 16.3094C110.513 16.7556 112.095 17.1208 114.043 17.6482ZM105.645 15.5385C102.927 11.157 99.8432 7.46508 95.4617 5.27429C96.6382 8.19534 97.8147 11.157 99.0318 14.1592C99.1535 14.4431 99.5187 14.8083 99.8027 14.8488C101.669 15.1328 103.535 15.2951 105.645 15.5385ZM118.1 26.9793C117.207 24.748 116.396 22.7195 115.625 20.7315C115.584 20.6504 115.544 20.5692 115.463 20.5692C113.597 19.9201 111.771 19.271 109.742 18.5813C110.513 21.0967 111.162 23.2874 111.893 25.4782C111.974 25.7622 112.339 26.1274 112.623 26.1679C114.327 26.4519 116.031 26.6548 118.1 26.9793ZM80.2073 15.5385C82.3575 15.2951 84.3049 15.1328 86.2522 14.8083C86.6579 14.7271 87.1448 14.2403 87.3071 13.8346C88.2807 11.5221 89.2139 9.16902 90.147 6.85652C90.3498 6.36968 90.6744 5.88284 90.9584 5.396C86.2117 7.58679 82.7632 10.9947 80.2073 15.5385ZM109.824 25.8028C109.174 23.896 108.525 22.2326 108.038 20.4881C107.511 18.6624 106.537 17.5265 104.468 17.567C103.779 17.567 103.089 17.3236 102.399 17.2019C101.628 17.0802 100.817 17.0396 100.046 16.9585C100.492 19.555 100.898 22.0298 101.385 24.464C101.425 24.748 101.791 25.1537 102.075 25.1942C104.509 25.3971 106.984 25.5999 109.824 25.8028ZM75.9474 25.7622C78.4628 25.5999 80.5318 25.4377 82.6415 25.2754C84.7917 25.1131 84.7917 25.1131 85.1568 23.0034C85.2785 22.3949 85.3597 21.7863 85.4814 21.1778C85.7654 19.7984 86.0088 18.419 86.3334 16.7962C83.8586 17.1613 81.5867 17.4859 79.3147 17.851C79.1119 17.8916 78.8279 18.0539 78.7467 18.2162C77.8136 20.691 76.9211 23.1252 75.9474 25.7622ZM99.3158 24.9914C98.7884 22.3138 98.3016 19.7984 97.7336 17.3236C97.6524 17.0396 97.0845 16.7151 96.7193 16.7151C94.5285 16.6339 92.3378 16.7151 90.147 16.6339C89.0921 16.5934 88.6459 16.9585 88.443 18.0133C88.0373 20.3258 87.5505 22.5977 87.0636 25.032H99.3158V24.9914ZM121.224 30.1844C120.899 30.5901 120.615 31.2392 120.169 31.4015C119.276 31.6855 118.83 31.1175 118.668 30.2655C118.587 29.9004 118.343 29.3324 118.059 29.2918C116.234 28.8861 114.367 28.6021 112.42 28.2776C112.461 28.8456 112.663 29.2513 112.542 29.5758C112.379 29.9815 112.055 30.5495 111.73 30.5901C111.365 30.6306 110.554 30.1844 110.594 29.9409C110.675 27.7096 109.053 27.8313 107.592 27.7096C105.685 27.5473 103.779 27.385 101.75 27.2227C101.75 27.8313 101.709 28.3181 101.75 28.805C101.831 29.5352 101.547 29.9409 100.817 29.9815C100.087 30.0627 99.5998 29.6975 99.5187 28.9673C99.4375 28.3993 99.397 27.8313 99.3564 27.101H87.1042C86.3739 28.0747 87.4693 30.0627 85.4814 29.9409C83.5746 29.8598 85.0757 28.1559 84.3454 27.1822C82.2763 27.3445 80.0856 27.5473 77.8542 27.7096C77.6108 27.7096 77.3674 27.7907 77.1645 27.7907C76.0285 27.7096 75.42 28.1559 75.3794 29.373C75.3794 30.1844 74.9737 30.7118 74.0812 30.6306C73.1075 30.5495 73.1886 29.8598 73.2698 29.1701C73.3103 28.9267 73.3103 28.6427 73.3103 28.2776C71.4847 28.5616 69.7402 28.7644 67.9957 29.1295C67.7117 29.1701 67.5494 29.8192 67.306 30.1844C67.0625 30.5901 66.8597 31.1175 66.4945 31.2798C65.5209 31.6855 65.034 31.1581 65.1152 29.6975C63.9792 30.0221 62.9244 30.3466 61.8696 30.6712C61.5044 30.7929 61.1393 30.9958 60.7742 31.0769C59.5571 31.3609 58.6645 30.7929 59.0296 29.373C60.693 22.8817 63.6546 17.1613 68.4014 12.4146C75.4606 5.31486 84.0209 1.29841 94.2851 1.66354C101.669 1.90696 108.16 4.7063 113.881 9.29073C120.372 14.5243 124.713 21.0967 126.62 29.2107C126.741 29.7381 126.782 30.6306 126.498 30.7929C126.011 31.0769 125.24 31.1175 124.632 30.9958C123.415 30.7118 122.279 30.2249 121.102 29.8192C121.143 29.9004 121.183 30.0627 121.224 30.1844Z" fill="#000506"/>
</g>
<mask id="mask1_307_2290" style="mask-type:luminance" maskUnits="userSpaceOnUse" x="3" y="1" width="179" height="63">
<path d="M181.754 1.62305H3.24561V63.3708H181.754V1.62305Z" fill="white"/>
</mask>
<g mask="url(#mask1_307_2290)">
<path d="M161.023 36.5542C160.901 37.1222 160.739 37.6902 160.739 38.2581C160.698 41.5849 160.698 44.9522 160.739 48.279C160.739 48.8064 160.942 49.3338 161.064 49.9424H157.493C157.412 49.5367 157.412 49.0092 157.169 48.7658C154.654 46.1288 152.057 43.5323 149.461 40.8546C148.933 42.5992 149.177 49.131 149.785 49.9424H146.255C146.377 49.3744 146.58 48.7658 146.58 48.1573C146.621 44.8305 146.621 41.4632 146.58 38.1364C146.58 37.6496 146.377 37.1222 146.296 36.5542H150.191C150.313 37.041 150.313 37.4873 150.515 37.8119C150.84 38.2987 151.286 38.7044 151.732 39.0696C153.923 41.0169 156.073 42.9643 158.061 44.7494C158.345 43.8163 158.143 37.3656 157.575 36.5542H161.023Z" fill="#000506"/>
</g>
<mask id="mask2_307_2290" style="mask-type:luminance" maskUnits="userSpaceOnUse" x="3" y="1" width="179" height="63">
<path d="M181.754 1.62305H3.24561V63.3708H181.754V1.62305Z" fill="white"/>
</mask>
<g mask="url(#mask2_307_2290)">
<path d="M116.031 42.1526C118.181 42.1526 120.25 42.2337 122.319 42.112C123.212 42.0714 123.698 41.3817 123.698 40.4892C123.739 39.5561 123.293 38.7447 122.36 38.7041C120.25 38.5824 118.181 38.6635 116.031 38.6635V42.1526ZM126.985 49.9015H122.928C122.765 49.3741 122.684 48.8466 122.481 48.3598C122.197 47.8324 121.67 47.3861 121.427 46.8181C120.372 44.4651 118.546 43.8971 116.152 44.5462C115.706 45.8039 115.868 49.0089 116.518 49.8609H112.745C112.866 49.2929 113.069 48.7655 113.069 48.2381C113.11 44.8708 113.11 41.5034 113.069 38.0955C113.069 37.5681 112.907 37.0407 112.785 36.5133C116.152 36.5133 119.601 36.4322 123.09 36.5539C125.159 36.635 126.336 37.9333 126.538 39.8806C126.741 42.0714 125.889 43.4102 123.861 44.0594C123.617 44.1405 123.333 44.2216 122.846 44.3434C124.307 46.3313 125.646 48.157 126.985 49.9015Z" fill="#000506"/>
</g>
<mask id="mask3_307_2290" style="mask-type:luminance" maskUnits="userSpaceOnUse" x="3" y="1" width="179" height="63">
<path d="M181.754 1.62305H3.24561V63.3708H181.754V1.62305Z" fill="white"/>
</mask>
<g mask="url(#mask3_307_2290)">
<path d="M6.53179 42.1527C8.64144 42.1527 10.6699 42.1932 12.6985 42.1527C13.6721 42.1121 14.159 41.463 14.1996 40.5299C14.2401 39.5967 13.7939 38.8259 12.8607 38.7448C10.7511 38.6231 8.68201 38.7042 6.53179 38.7042V42.1527ZM17.4857 49.9421H13.4287C13.307 49.4553 13.307 48.9685 13.1042 48.6033C12.6985 47.8731 12.0088 47.2239 11.6842 46.4531C10.6699 44.0189 8.68201 44.2217 6.45065 44.5057C6.61293 46.2908 6.12609 48.0759 6.81578 49.861H3.28618C3.36732 49.2524 3.57017 48.5628 3.57017 47.8731C3.61074 44.6274 3.61074 41.3413 3.57017 38.0956C3.57017 37.6088 3.36732 37.122 3.24561 36.5134C3.40789 36.5134 3.73245 36.4323 4.09758 36.4323C7.18091 36.4323 10.3048 36.3917 13.3881 36.5134C15.9441 36.6351 17.2829 38.2985 17.08 40.8138C16.9583 42.3149 16.2281 43.3698 14.7675 43.8972C14.3618 44.0595 13.9561 44.1812 13.3476 44.384C14.8081 46.3314 16.1469 48.1571 17.4857 49.9421Z" fill="#000506"/>
</g>
<mask id="mask4_307_2290" style="mask-type:luminance" maskUnits="userSpaceOnUse" x="3" y="1" width="179" height="63">
<path d="M181.754 1.62305H3.24561V63.3708H181.754V1.62305Z" fill="white"/>
</mask>
<g mask="url(#mask4_307_2290)">
<path d="M86.2116 42.9643C88.6053 43.654 91.0395 43.0454 93.3926 43.3294C92.7029 44.8711 92.784 46.4533 93.4331 48.0761C90.3092 49.7801 86.9825 50.7132 83.3717 49.8612C79.8421 49.0092 77.8136 46.2504 78.057 42.6397C78.2599 39.2318 80.7347 36.7976 84.5077 36.3108C86.5768 36.0268 88.5647 36.2296 90.5121 36.9599C91.1206 37.2033 91.7698 37.2844 92.5 37.4467C92.0537 38.3393 91.5669 39.3129 91.0395 40.4083C90.2281 39.0695 88.9704 38.6233 87.6722 38.5421C86.4145 38.461 85.0351 38.461 83.8991 38.8667C81.7895 39.5969 80.7347 41.7877 81.0998 43.9785C81.4649 46.1693 83.2906 47.7515 85.7248 47.8733C86.8202 47.9138 87.9156 47.7921 88.9704 47.5487C90.7149 47.1836 90.7555 46.9807 90.5121 45.1956H86.2522V42.9643H86.2116Z" fill="#000506"/>
</g>
<mask id="mask5_307_2290" style="mask-type:luminance" maskUnits="userSpaceOnUse" x="3" y="1" width="179" height="63">
<path d="M181.754 1.62305H3.24561V63.3708H181.754V1.62305Z" fill="white"/>
</mask>
<g mask="url(#mask5_307_2290)">
<path d="M33.0647 47.3458V50.2668C32.4156 50.1857 31.7665 50.0234 31.1174 50.0234C27.7906 49.9828 24.4233 50.0234 21.0965 50.0234C20.6908 50.0234 20.2446 50.0234 19.9606 50.0234C20.0823 49.3743 20.2446 48.8469 20.2446 48.3194C20.2851 44.9521 20.2851 41.5442 20.2446 38.1769C20.2446 37.6495 20.0417 37.1221 19.9606 36.5135C23.5713 36.5135 27.2226 36.5135 30.9145 36.5135C31.5231 36.5135 32.1316 36.3107 32.8213 36.189V38.9477C32.1316 38.8666 31.4014 38.6637 30.6711 38.6637C28.2369 38.6232 25.8027 38.6637 23.2873 38.6637V41.9905C25.4781 41.7877 27.6283 42.3556 29.7786 41.5848V44.3436C27.6689 43.6539 25.5187 44.1813 23.2873 43.9784V47.6298C24.9913 48.0355 32.1316 47.8732 33.0647 47.3458Z" fill="#000506"/>
</g>
<mask id="mask6_307_2290" style="mask-type:luminance" maskUnits="userSpaceOnUse" x="3" y="1" width="179" height="63">
<path d="M181.754 1.62305H3.24561V63.3708H181.754V1.62305Z" fill="white"/>
</mask>
<g mask="url(#mask6_307_2290)">
<path d="M47.467 48.5626C47.8727 47.6701 48.2784 46.6558 48.7247 45.6821C50.6315 47.9135 53.0657 48.2786 55.7028 47.7918C56.0679 47.7106 56.5142 47.5889 56.7576 47.3455C57.1227 46.9398 57.6096 46.3718 57.5284 45.9255C57.4879 45.5198 56.7982 44.9924 56.3113 44.9113C54.7291 44.5867 53.1063 44.5056 51.5241 44.2622C49.2116 43.9376 47.9945 42.7611 47.8322 40.8543C47.6699 38.8663 48.8059 37.2435 50.9561 36.635C53.3903 35.9453 55.7839 36.2293 58.0964 37.1218C58.7861 37.4058 59.5164 37.5681 60.2872 37.8115C59.8409 38.6635 59.3541 39.6372 58.8673 40.5703C56.9199 38.5418 54.5668 38.0549 52.0109 38.7446C51.4023 38.9069 50.6721 39.7183 50.5909 40.2863C50.4692 41.1788 51.4429 41.3411 52.1732 41.4628C53.6337 41.6657 55.1348 41.7468 56.5953 42.0308C59.557 42.5582 60.9769 44.7084 60.1655 47.1832C59.6787 48.6438 58.5427 49.4146 57.1227 49.8203C54.4045 50.5911 51.7675 50.3071 49.2116 49.2117C48.7247 48.9277 48.1567 48.7655 47.467 48.5626Z" fill="#000506"/>
</g>
<mask id="mask7_307_2290" style="mask-type:luminance" maskUnits="userSpaceOnUse" x="3" y="1" width="179" height="63">
<path d="M181.754 1.62305H3.24561V63.3708H181.754V1.62305Z" fill="white"/>
</mask>
<g mask="url(#mask7_307_2290)">
<path d="M76.0285 50.2263C75.4605 50.1451 74.9331 49.9829 74.4057 49.9829C70.5515 49.9829 66.7379 49.9829 62.9243 49.9829C63.046 49.3743 63.2894 48.8063 63.2894 48.2383C63.33 44.871 63.33 41.4631 63.2894 38.0958C63.2894 37.609 63.0866 37.0816 62.9649 36.473C63.9791 36.473 65.1151 36.473 66.2105 36.473C68.807 36.473 71.4035 36.5136 74 36.473C74.568 36.473 75.1765 36.2701 75.7851 36.1484V38.9883C74.9331 38.5421 68.4013 38.3798 66.2511 38.7449V41.95C68.4419 41.7877 70.6326 42.3151 72.7829 41.5848V44.3436C72.2149 44.2219 71.6875 44.0596 71.1601 44.0191C70.4298 43.9785 69.659 44.0191 68.9287 44.0191C65.8454 44.0191 65.8454 44.0191 66.2105 47.1024C66.2511 47.3864 66.6973 47.7921 66.9813 47.7921C69.6184 47.8326 72.2555 47.8326 74.8925 47.7921C75.2576 47.7921 75.6228 47.5892 76.0285 47.4675V50.2263Z" fill="#000506"/>
</g>
<mask id="mask8_307_2290" style="mask-type:luminance" maskUnits="userSpaceOnUse" x="3" y="1" width="179" height="63">
<path d="M181.754 1.62305H3.24561V63.3708H181.754V1.62305Z" fill="white"/>
</mask>
<g mask="url(#mask8_307_2290)">
<path d="M102.561 39.7588C101.709 41.5845 101.02 43.0856 100.289 44.6678H104.874C104.103 43.045 103.413 41.5439 102.561 39.7588ZM100.817 36.5132H104.63C104.712 37.1623 104.63 37.8114 104.874 38.2983C106.497 41.6656 108.16 44.9923 109.864 48.3191C110.148 48.8871 110.594 49.3739 111 49.9419H106.375C107.43 48.7654 106.334 47.9134 105.888 47.0209C105.685 46.6557 104.833 46.5746 104.265 46.534C102.967 46.4529 101.669 46.6152 100.371 46.4934C99.1129 46.3717 99.0318 47.3454 98.6666 48.0351C98.3421 48.6437 97.8958 49.2928 99.1129 49.9013H94.7313C95.1776 49.1711 95.6239 48.4408 96.0296 47.67C97.5307 44.5866 99.0318 41.5033 100.492 38.42C100.736 37.8926 100.695 37.284 100.817 36.5132Z" fill="#000506"/>
</g>
<mask id="mask9_307_2290" style="mask-type:luminance" maskUnits="userSpaceOnUse" x="3" y="1" width="179" height="63">
<path d="M181.754 1.62305H3.24561V63.3708H181.754V1.62305Z" fill="white"/>
</mask>
<g mask="url(#mask9_307_2290)">
<path d="M136.072 39.7182C135.22 41.5439 134.531 43.045 133.8 44.6272H138.344C137.573 43.0044 136.884 41.5033 136.072 39.7182ZM144.511 49.9419H139.683C140.819 49.0899 140.008 48.4002 139.764 47.67C139.44 46.6963 138.831 46.4123 137.817 46.4934C136.519 46.5746 135.22 46.5746 133.922 46.4934C133.07 46.4529 132.624 46.7774 132.34 47.5077C132.096 48.2785 131.163 49.0088 132.38 49.9013H128.405C130.311 46.0066 132.259 41.9902 134.166 37.9331C134.328 37.568 134.206 37 134.206 36.5132H138.101C138.182 37.1623 138.141 37.7709 138.344 38.2577C140.008 41.7062 141.752 45.1546 143.497 48.5625C143.74 49.0494 144.146 49.4551 144.511 49.9419Z" fill="#000506"/>
</g>
<mask id="mask10_307_2290" style="mask-type:luminance" maskUnits="userSpaceOnUse" x="3" y="1" width="179" height="63">
<path d="M181.754 1.62305H3.24561V63.3708H181.754V1.62305Z" fill="white"/>
</mask>
<g mask="url(#mask10_307_2290)">
<path d="M171.531 49.9419H167.839C167.92 49.2116 168.082 48.4408 168.123 47.67C168.163 45.114 168.123 42.5581 168.123 39.9616C168.123 39.5559 168.082 39.1097 168.082 38.7851H162.93V36.1075C163.498 36.2292 164.106 36.432 164.674 36.432C167.961 36.4726 171.287 36.4726 174.573 36.432C175.141 36.432 175.709 36.1886 176.318 36.0669V38.8257H171.206C170.8 40.3268 171.003 49.0493 171.531 49.9419Z" fill="#000506"/>
</g>
<mask id="mask11_307_2290" style="mask-type:luminance" maskUnits="userSpaceOnUse" x="3" y="1" width="179" height="63">
<path d="M181.754 1.62305H3.24561V63.3708H181.754V1.62305Z" fill="white"/>
</mask>
<g mask="url(#mask11_307_2290)">
<path d="M34.2007 49.2928C34.5658 48.3191 34.9715 47.2643 35.3772 46.1689C36.3915 47.67 39.2314 48.522 40.7325 47.7106C41.2599 47.4266 41.8279 46.6152 41.8279 46.0066C41.9496 43.2478 41.909 40.4891 41.8684 37.7303C41.8684 37.3246 41.6656 36.9595 41.5439 36.5132H45.1546C45.0329 37.0406 44.8706 37.5274 44.8301 38.0549C44.7895 40.5296 44.8301 43.0044 44.8301 45.5198C44.8301 48.6031 43.4913 50.0636 40.4079 50.1853C39.0285 50.2259 37.6491 49.7796 36.2698 49.5768C35.6206 49.4551 34.9715 49.3739 34.2007 49.2928Z" fill="#000506"/>
</g>
<mask id="mask12_307_2290" style="mask-type:luminance" maskUnits="userSpaceOnUse" x="3" y="1" width="179" height="63">
<path d="M181.754 1.62305H3.24561V63.3708H181.754V1.62305Z" fill="white"/>
</mask>
<g mask="url(#mask12_307_2290)">
<path d="M178.306 36.5132H181.714C181.592 37.0406 181.389 37.5274 181.389 38.0549C181.349 41.5033 181.349 44.9518 181.389 48.4002C181.389 48.8871 181.592 49.4145 181.714 49.9419H178.103C178.752 47.7511 178.346 45.4792 178.387 43.2478C178.509 41.057 178.63 38.8257 178.306 36.5132Z" fill="#000506"/>
</g>
<mask id="mask13_307_2290" style="mask-type:luminance" maskUnits="userSpaceOnUse" x="3" y="1" width="179" height="63">
<path d="M181.754 1.62305H3.24561V63.3708H181.754V1.62305Z" fill="white"/>
</mask>
<g mask="url(#mask13_307_2290)">
<path d="M78.0976 57.7316C78.0976 59.111 78.1382 60.4903 78.057 61.8697C78.057 62.2754 77.6919 62.6406 77.4891 63.0463C77.2456 62.6406 76.8399 62.2754 76.7994 61.8697C76.7182 59.6384 76.7588 57.407 76.7588 55.1351C77.6919 55.0539 78.2599 55.1757 78.909 55.9059C80.2884 57.4882 81.9112 58.827 83.6557 60.5309C83.6557 59.395 83.6557 58.4618 83.6557 57.5693C83.6557 57.0825 83.5746 56.555 83.6557 56.0682C83.6963 55.7436 83.9803 55.4596 84.1426 55.1757C84.4266 55.5002 84.8728 55.7436 84.9134 56.1088C85.0351 56.7579 84.954 57.407 84.954 58.0967C84.954 59.4355 84.9945 60.8149 84.954 62.1537C84.954 62.4783 84.67 63.0463 84.5077 63.0463C84.102 63.0463 83.5746 62.884 83.2906 62.6C81.6678 60.9772 80.0856 59.2732 78.4627 57.6099C78.3816 57.6099 78.2193 57.6504 78.0976 57.7316Z" fill="#000506"/>
</g>
<mask id="mask14_307_2290" style="mask-type:luminance" maskUnits="userSpaceOnUse" x="3" y="1" width="179" height="63">
<path d="M181.754 1.62305H3.24561V63.3708H181.754V1.62305Z" fill="white"/>
</mask>
<g mask="url(#mask14_307_2290)">
<path d="M142.969 57.5691C142.969 59.1108 142.969 60.4901 142.969 61.8695C142.969 62.6809 142.726 63.1678 141.671 62.9244C141.671 60.5307 141.671 58.0965 141.671 55.7029C141.671 55.5 141.996 55.1349 142.077 55.1349C142.645 55.2972 143.294 55.4189 143.7 55.784C145.16 57.1634 146.499 58.6645 147.919 60.0844C148 60.1656 148.162 60.2062 148.568 60.3684C148.568 58.8268 148.568 57.4474 148.568 56.1086C148.568 55.2972 148.852 54.932 149.907 55.1755V59.7193C149.907 60.409 149.988 61.1393 149.866 61.829C149.826 62.2347 149.582 62.8026 149.298 62.8838C149.014 62.9649 148.487 62.6404 148.162 62.3564C146.621 60.8147 145.079 59.2325 143.578 57.6908C143.537 57.6908 143.375 57.6908 142.969 57.5691Z" fill="#000506"/>
</g>
<mask id="mask15_307_2290" style="mask-type:luminance" maskUnits="userSpaceOnUse" x="3" y="1" width="179" height="63">
<path d="M181.754 1.62305H3.24561V63.3708H181.754V1.62305Z" fill="white"/>
</mask>
<g mask="url(#mask15_307_2290)">
<path d="M100.492 59.111C100.492 59.2733 100.492 59.4355 100.492 59.5572C100.533 62.2754 99.9243 62.032 102.967 61.9915C105.117 61.9509 106.01 60.9772 105.888 58.7053C105.766 56.5956 104.833 55.9871 101.628 56.1088C99.5997 56.1494 100.736 57.6504 100.492 58.5024C100.452 58.7053 100.492 58.9081 100.492 59.111ZM99.0318 55.2162C100.857 55.2162 102.48 55.1351 104.144 55.2162C106.172 55.3379 107.308 56.5551 107.43 58.6241C107.592 60.9366 106.659 62.5189 104.671 62.8029C103.048 63.0463 101.385 62.9651 99.762 62.9651C99.5186 62.9651 99.1129 62.6 99.0723 62.3566C98.9912 60.0035 99.0318 57.6099 99.0318 55.2162Z" fill="#000506"/>
</g>
<mask id="mask16_307_2290" style="mask-type:luminance" maskUnits="userSpaceOnUse" x="3" y="1" width="179" height="63">
<path d="M181.754 1.62305H3.24561V63.3708H181.754V1.62305Z" fill="white"/>
</mask>
<g mask="url(#mask16_307_2290)">
<path d="M55.6623 58.9893C55.7435 60.9366 56.9606 62.1538 58.8268 62.1132C60.7336 62.0726 61.9507 60.7338 61.829 58.7459C61.7478 57.0825 60.3685 55.9871 58.5022 56.0682C56.8389 56.1088 55.6217 57.407 55.6623 58.9893ZM58.7457 63.3709C56.8794 63.168 55.4595 62.5595 54.6075 60.8961C53.8367 59.3544 54.0395 57.8533 55.1349 56.5551C56.4332 55.0134 58.2182 54.77 60.0439 55.1351C61.6261 55.4597 62.8432 56.3928 63.2489 58.0156C63.6952 59.8007 63.0867 61.5046 61.6667 62.316C60.7742 62.8029 59.7193 63.0057 58.7457 63.3709Z" fill="#000506"/>
</g>
<mask id="mask17_307_2290" style="mask-type:luminance" maskUnits="userSpaceOnUse" x="3" y="1" width="179" height="63">
<path d="M181.754 1.62305H3.24561V63.3708H181.754V1.62305Z" fill="white"/>
</mask>
<g mask="url(#mask17_307_2290)">
<path d="M120.859 63.0463V55.1757C122.928 55.1757 124.997 55.1351 127.106 55.2162C127.431 55.2162 127.796 55.5002 128.121 55.6625C127.755 55.8248 127.431 56.0682 127.066 56.1088C125.808 56.1494 124.55 56.1494 123.293 56.1088C122.4 56.0682 122.238 56.5956 122.238 57.2853C122.238 57.975 122.4 58.5024 123.293 58.4619C123.901 58.4213 124.55 58.4213 125.159 58.4619C125.524 58.5024 125.849 58.5836 126.214 58.6647C126.214 58.7864 126.254 58.8676 126.254 58.9893C126.011 59.111 125.768 59.2733 125.524 59.3138C124.956 59.3544 124.348 59.3138 123.78 59.3544C122.481 59.3544 121.792 60.4498 122.441 61.5858C122.562 61.8292 123.09 61.9509 123.414 61.9915C124.753 62.032 126.092 61.9915 127.431 62.032C127.755 62.032 128.039 62.316 128.364 62.4783C128.08 62.6812 127.796 63.0057 127.512 63.0057C125.321 63.0463 123.212 63.0463 120.859 63.0463Z" fill="#000506"/>
</g>
<mask id="mask18_307_2290" style="mask-type:luminance" maskUnits="userSpaceOnUse" x="7" y="4" width="320" height="140">
<path d="M327 4H7.99951V143.58H327V4Z" fill="white"/>
</mask>
<g mask="url(#mask18_307_2290)">
<path d="M39.7788 56.0323C38.7581 56.0323 37.765 56.0731 36.7443 56.0323C36.1099 55.9915 35.9168 56.4405 35.9168 57.2976C35.9168 58.1956 36.1926 58.4405 36.7719 58.3997C37.3512 58.3589 37.9581 58.3997 38.703 58.6854C38.5374 58.8895 38.3995 59.216 38.2064 59.2976C37.9581 59.4201 37.6823 59.3384 37.4064 59.3384C35.9168 59.3384 35.9443 59.3385 35.9443 61.5425C35.9443 61.9507 35.9443 62.3997 35.9443 62.9711C35.6685 63.0119 35.3926 63.0119 35.0064 63.0527C35.0064 60.6038 34.9788 58.2364 35.034 55.8691C35.034 55.6242 35.3926 55.1752 35.6133 55.1752C36.9099 55.0527 38.234 55.0527 39.5305 55.0527C39.6961 55.0527 39.8616 55.5017 39.9995 55.7058C39.9168 55.7874 39.834 55.9099 39.7788 56.0323Z" fill="#000506"/>
</g>
</g>
<defs>
<clipPath id="clip0_307_2290">
<rect width="185" height="64.9934" fill="white"/>
</clipPath>
</defs>
</svg>
