<svg width="101" height="110" viewBox="0 0 101 110" fill="none" xmlns="http://www.w3.org/2000/svg">
<path d="M22.4444 22C22.4444 16.1652 24.8091 10.5695 29.0183 6.44365C33.2274 2.31785 38.9363 0 44.8889 0C50.8415 0 56.5504 2.31785 60.7595 6.44365C64.9687 10.5695 67.3333 16.1652 67.3333 22H95.3889C96.8771 22 98.3043 22.5795 99.3566 23.6109C100.409 24.6424 101 26.0413 101 27.5V50.435C101.001 51.3152 100.786 52.1828 100.374 52.9649C99.9622 53.747 99.3646 54.4207 98.6317 54.9294C97.8989 55.4381 97.0522 55.767 96.1627 55.8884C95.2733 56.0097 94.3671 55.9201 93.5204 55.627C91.8281 55.043 90.0177 54.8652 88.2409 55.1086C86.464 55.3519 84.7726 56.0092 83.3084 57.0255C81.8443 58.0418 80.65 59.3873 79.8258 60.9493C79.0016 62.5113 78.5714 64.2442 78.5714 66.0027C78.5714 67.7613 79.0016 69.4942 79.8258 71.0562C80.65 72.6182 81.8443 73.9638 83.3084 74.98C84.7726 75.9963 86.464 76.6536 88.2409 76.8969C90.0177 77.1403 91.8281 76.9625 93.5204 76.3785C94.3662 76.0857 95.2714 75.9959 96.16 76.1168C97.0485 76.2376 97.8946 76.5655 98.6272 77.073C99.3597 77.5804 99.9575 78.2526 100.37 79.0333C100.783 79.8139 100.999 80.6802 101 81.5595V104.5C101 105.959 100.409 107.358 99.3566 108.389C98.3043 109.421 96.8771 110 95.3889 110H5.61111C4.12295 110 2.69574 109.421 1.64346 108.389C0.591169 107.358 0 105.959 0 104.5V27.5C0 26.0413 0.591169 24.6424 1.64346 23.6109C2.69574 22.5795 4.12295 22 5.61111 22H22.4444ZM44.8889 11C43.0931 10.9996 41.3235 11.4215 39.7286 12.2305C38.1338 13.0394 36.7602 14.2117 35.7234 15.6488C34.6866 17.086 34.0168 18.746 33.7702 20.4895C33.5236 22.233 33.7075 24.0091 34.3063 25.6685C34.6054 26.4985 34.6968 27.3867 34.573 28.2585C34.4491 29.1303 34.1136 29.9603 33.5946 30.6786C33.0756 31.397 32.3883 31.9827 31.5905 32.3867C30.7926 32.7906 29.9075 33.0009 29.0094 33H11.2222V99H89.7778V88C83.8251 88 78.1163 85.6822 73.9072 81.5564C69.698 77.4305 67.3333 71.8348 67.3333 66C67.3333 60.1652 69.698 54.5695 73.9072 50.4436C78.1163 46.3178 83.8251 44 89.7778 44V33H60.7683C59.8703 33.0009 58.9852 32.7906 58.1873 32.3867C57.3895 31.9827 56.7022 31.397 56.1832 30.6786C55.6642 29.9603 55.3287 29.1303 55.2048 28.2585C55.081 27.3867 55.1724 26.4985 55.4714 25.6685C55.8979 24.5245 56.1111 23.3017 56.1111 22C56.1111 19.0826 54.9288 16.2847 52.8242 14.2218C50.7196 12.1589 47.8652 11 44.8889 11Z" fill="#FF8C42"/>
</svg>
