<svg width="520" height="320" viewBox="0 0 520 320" fill="none" xmlns="http://www.w3.org/2000/svg">
<path d="M109.613 268.919V305.787H107.268L106.798 302.638L106.773 302.475L106.657 302.358L106.5 302.201H105.811L105.663 302.418C103.908 304.977 101.287 306.267 97.7148 306.267C94.3587 306.267 91.7997 305.13 89.9707 302.876C88.1307 300.61 87.1758 297.347 87.1758 293.021C87.1758 288.695 88.1305 285.399 89.9834 283.087C91.8261 280.789 94.3755 279.624 97.7148 279.624C101.051 279.624 103.798 280.885 105.629 283.367L105.779 283.57H106.895L106.845 283.024L106.671 281.106L106.575 279.276V268.919H109.613ZM98.1718 282.013C95.6562 282.013 93.6777 283.012 92.3261 284.989V284.991C90.9964 286.947 90.3564 289.654 90.3564 293.076C90.3564 296.489 90.9822 299.23 92.3232 301.086C93.6816 302.967 95.6713 303.899 98.2256 303.899H98.7256V303.868C101.32 303.78 103.309 303.001 104.598 301.451C105.951 299.822 106.575 297.247 106.575 293.872V293.021C106.575 289.209 105.944 286.375 104.587 284.626C103.209 282.851 101.022 282.013 98.1718 282.013Z" fill="#000506" stroke="#000506"/>
<path d="M122.198 280.103V305.776H119.16V280.103H122.198ZM120.695 270.206C121.243 270.206 121.655 270.375 122.031 270.725C122.362 271.034 122.579 271.554 122.579 272.376C122.579 273.201 122.361 273.73 122.031 274.038L122.026 274.042C121.654 274.397 121.213 274.569 120.695 274.569C120.142 274.569 119.693 274.385 119.346 274.046C119.033 273.74 118.822 273.207 118.822 272.376C118.822 271.521 119.033 271.004 119.341 270.71C119.685 270.383 120.135 270.206 120.695 270.206Z" fill="#000506" stroke="#000506"/>
<path d="M135.087 273.923V280.104H142.817V282.242H135.087V298.439C135.087 300.116 135.486 301.483 136.356 302.466C137.126 303.336 138.144 303.801 139.365 303.899V303.932H139.865C140.415 303.932 140.958 303.9 141.485 303.841L142.007 303.773L142.015 303.772C142.387 303.711 142.72 303.648 143.013 303.585V305.702C142.648 305.835 142.149 305.959 141.503 306.066C140.677 306.204 139.942 306.267 139.288 306.267C136.798 306.267 135.019 305.612 133.856 304.386C132.688 303.155 132.06 301.262 132.06 298.613V282.242H128.238V281.117L131.761 279.57L131.973 279.478L132.038 279.256L133.63 273.923H135.087Z" fill="#000506" stroke="#000506"/>
<path d="M165.297 268.909V305.776H162.258V268.909H165.297Z" fill="#000506" stroke="#000506"/>
<path d="M177.881 280.103V305.776H174.843V280.103H177.881ZM176.378 270.206C176.925 270.206 177.338 270.375 177.714 270.725C178.045 271.034 178.261 271.554 178.261 272.376C178.261 273.201 178.044 273.73 177.714 274.038L177.709 274.042C177.337 274.397 176.896 274.569 176.378 274.569C175.824 274.569 175.376 274.385 175.029 274.046C174.715 273.74 174.505 273.207 174.505 272.376C174.505 271.521 174.716 271.004 175.024 270.71C175.368 270.383 175.817 270.206 176.378 270.206Z" fill="#000506" stroke="#000506"/>
<path d="M186.63 280.104L192.246 295.584V295.585C193.544 299.288 194.294 301.664 194.515 302.727L194.598 303.125H195.609L195.69 302.724C195.856 301.903 196.409 300.161 197.359 297.449C198.294 294.782 200.376 289.008 203.617 280.104H206.864L197.13 305.776H193.118L183.384 280.104H186.63Z" fill="#000506" stroke="#000506"/>
<path d="M220.107 279.624C222.738 279.624 225.323 280.132 227.849 281.145L226.81 283.514C224.269 282.516 221.937 282.002 219.803 282.002C217.848 282.002 216.302 282.311 215.218 282.982C214.117 283.663 213.522 284.645 213.522 285.893C213.522 286.704 213.733 287.408 214.16 288.004C214.578 288.588 215.236 289.112 216.086 289.588V289.587C216.932 290.068 218.524 290.735 220.825 291.593L220.828 291.594C223.976 292.746 226.014 293.87 227.039 294.947C227.974 295.929 228.484 297.151 228.557 298.633V298.995C228.557 301.335 227.695 303.087 225.995 304.336C224.274 305.601 221.792 306.255 218.518 306.255C215.176 306.255 212.604 305.75 210.756 304.778V302.121C211.863 302.625 213.025 303.029 214.244 303.348L214.248 303.349C215.753 303.729 217.21 303.92 218.616 303.92C220.77 303.92 222.485 303.578 223.737 302.837L223.738 302.835C225.029 302.065 225.681 300.873 225.681 299.333C225.681 298.13 225.152 297.098 224.144 296.284C223.172 295.487 221.351 294.592 218.753 293.59L218.748 293.588L217.854 293.249C215.852 292.469 214.427 291.792 213.557 291.219C212.563 290.566 211.849 289.834 211.384 289.041C210.926 288.261 210.69 287.306 210.69 286.154C210.69 284.135 211.494 282.576 213.125 281.417C214.775 280.244 217.089 279.624 220.107 279.624Z" fill="#000506" stroke="#000506"/>
<path d="M258.753 279.624C261.972 279.624 264.463 280.677 266.304 282.746V282.747C268.154 284.837 269.096 287.61 269.096 291.114V293.165H250.73L250.742 293.676C250.82 296.877 251.635 299.389 253.248 301.133C254.867 302.883 257.126 303.724 259.951 303.724C262.648 303.724 265.321 303.203 267.953 302.169V304.69C266.665 305.231 265.448 305.618 264.299 305.864C263.071 306.127 261.573 306.255 259.799 306.255H259.299V306.257C255.708 306.16 252.911 305.005 250.843 302.826C248.679 300.545 247.562 297.346 247.562 293.164C247.562 288.971 248.597 285.652 250.614 283.238C252.622 280.833 255.317 279.624 258.753 279.624ZM258.71 282.002C256.457 282.002 254.605 282.745 253.224 284.258C251.857 285.756 251.078 287.799 250.842 290.337L250.791 290.883H265.764V290.383C265.764 287.767 265.183 285.684 263.948 284.209C262.703 282.722 260.927 282.002 258.71 282.002Z" fill="#000506" stroke="#000506"/>
<path d="M276.169 280.104L281.785 295.584V295.585C283.083 299.288 283.833 301.664 284.053 302.727L284.136 303.125H285.148L285.229 302.724C285.395 301.903 285.948 300.161 286.898 297.449C287.833 294.782 289.915 289.008 293.156 280.104H296.403L286.669 305.776H282.657L272.923 280.104H276.169Z" fill="#000506" stroke="#000506"/>
<path d="M311.616 279.624C314.836 279.624 317.327 280.677 319.167 282.746V282.747C321.018 284.837 321.959 287.61 321.959 291.114V293.165H303.593L303.606 293.676C303.684 296.877 304.498 299.389 306.112 301.133C307.73 302.883 309.989 303.724 312.815 303.724C315.511 303.724 318.185 303.203 320.817 302.169V304.69C319.529 305.231 318.311 305.618 317.162 305.864C315.934 306.127 314.436 306.255 312.661 306.255H312.161V306.257C308.571 306.16 305.774 305.005 303.706 302.826C301.543 300.545 300.425 297.346 300.425 293.164C300.425 288.971 301.461 285.652 303.477 283.238C305.485 280.833 308.18 279.624 311.616 279.624ZM311.573 282.002C309.32 282.002 307.469 282.745 306.087 284.258C304.72 285.756 303.941 287.8 303.716 290.339L303.668 290.883H318.638V290.383C318.638 287.767 318.057 285.684 316.823 284.209C315.577 282.722 313.801 282.002 311.584 282.002H311.573Z" fill="#000506" stroke="#000506"/>
<path d="M341.913 279.635C345.05 279.635 347.311 280.391 348.807 281.818C350.289 283.232 351.08 285.544 351.08 288.891V305.787H348.063V289.021C348.063 286.788 347.56 285.018 346.449 283.82C345.328 282.612 343.623 282.058 341.445 282.058C338.575 282.058 336.361 282.833 334.937 284.498C333.523 286.14 332.868 288.786 332.868 292.291V305.787H329.829V280.114H332.186L332.766 283.354L332.84 283.766H333.731L333.878 283.531C334.652 282.298 335.732 281.345 337.144 280.664C338.561 279.981 340.14 279.635 341.913 279.635Z" fill="#000506" stroke="#000506"/>
<path d="M363.697 273.923V280.104H371.426V282.242H363.697V298.439C363.697 300.116 364.096 301.483 364.965 302.466C365.795 303.404 366.914 303.872 368.263 303.916L368.279 303.932H368.486C369.219 303.932 369.94 303.875 370.628 303.773C371.006 303.718 371.34 303.653 371.633 303.589V305.702C371.268 305.835 370.768 305.959 370.114 306.066H370.113C369.287 306.204 368.552 306.267 367.898 306.267C365.408 306.267 363.628 305.612 362.465 304.386C361.298 303.155 360.67 301.262 360.67 298.613V282.242H356.859V281.117L360.371 279.57L360.583 279.478L360.648 279.256L362.24 273.923H363.697Z" fill="#000506" stroke="#000506"/>
<path d="M397.493 280.092L386.307 309.784C385.188 312.746 383.899 314.79 382.483 315.963C381.069 317.134 379.324 317.734 377.228 317.734C376.169 317.734 375.118 317.624 374.081 317.415V315.185C374.849 315.312 375.677 315.376 376.574 315.376C378.057 315.376 379.356 314.956 380.443 314.1C381.521 313.25 382.358 311.996 382.973 310.381L382.974 310.382L384.454 306.588L384.526 306.405L384.452 306.221L373.986 280.103H377.211L382.92 294.981V294.982C384.204 298.458 384.987 300.933 385.283 302.427L385.362 302.831H386.359L386.454 302.452C386.656 301.645 387.096 300.246 387.772 298.239C388.437 296.261 390.593 290.219 394.245 280.092H397.493Z" fill="#000506" stroke="#000506"/>
<path d="M414.892 279.615C415.775 279.624 416.575 279.689 417.3 279.81L416.893 282.561C415.976 282.386 415.138 282.297 414.393 282.297C412.081 282.297 410.108 283.241 408.486 285.095C406.862 286.953 406.066 289.254 406.066 291.964V305.776H403.027V280.103H405.402L405.817 284.587L405.86 285.042H406.802L406.945 284.79C407.906 283.109 409.044 281.831 410.361 280.945C411.673 280.063 413.111 279.624 414.677 279.624H414.884L414.892 279.615Z" fill="#000506" stroke="#000506"/>
<path d="M425.193 300.879C426.023 300.879 426.603 301.127 426.998 301.565C427.398 302.008 427.631 302.686 427.631 303.682C427.631 304.663 427.394 305.305 426.988 305.766C426.579 306.218 426.007 306.463 425.193 306.463C424.463 306.463 423.892 306.248 423.441 305.833C423.035 305.458 422.776 304.791 422.775 303.693C422.775 302.655 423.005 301.966 423.378 301.541C423.741 301.127 424.314 300.879 425.193 300.879ZM427.215 271.198L426.022 295.966H424.428L423.235 271.198H427.215Z" fill="#000506" stroke="#000506"/>
<path d="M8.06738 202.199V222.779H38.0469V202.199H45.6143V253.521H38.0469V229.736H8.05664V253.521H0.5V202.199H8.06738Z" fill="#000506" stroke="#000506"/>
<path d="M106.971 201.501L100.889 208.847L100.606 209.189L100.912 209.511C105.415 214.233 108.089 220.735 108.089 228.067V228.567H108.095C107.848 243.323 96.6542 254.632 81.6351 254.632C76.2205 254.632 71.2318 253.121 67.1351 250.461L66.7601 250.218L66.4759 250.564L63.1419 254.632H56.2181L62.3724 247.144L62.6517 246.804L62.3499 246.484C57.9095 241.76 55.2357 235.331 55.2357 228.067C55.2357 212.991 66.5769 201.502 81.6244 201.501C87.1041 201.501 92.0318 203.012 96.1341 205.547L96.5042 205.776L96.7816 205.441L100.05 201.501H106.971ZM95.5316 215.333L71.7787 244.208L71.4144 244.651L71.9017 244.952C74.7066 246.682 77.9991 247.61 81.6351 247.61C92.2817 247.61 100.277 239.392 100.516 228.567H100.534V228.067C100.534 223.14 98.962 218.781 96.3138 215.346L95.931 214.849L95.5316 215.333ZM81.6351 208.317C70.816 208.317 62.8792 216.875 62.8792 228.067C62.8792 232.914 64.3713 237.21 67.0247 240.584L67.1751 240.775H67.6644L67.8148 240.593L91.5687 211.784L91.933 211.341L91.4447 211.041C88.6436 209.313 85.2868 208.317 81.6351 208.317Z" fill="#000506" stroke="#000506"/>
<path d="M135.218 202.188V236.22C135.218 241.988 133.606 246.585 130.79 249.732C127.979 252.873 123.924 254.622 118.931 254.622C116.46 254.622 113.888 254.051 112.105 253.078V246.669C113.857 247.344 115.73 247.675 117.876 247.675C120.944 247.675 123.391 246.498 125.061 244.417C126.72 242.349 127.575 239.436 127.575 236.013V202.188H135.218Z" fill="#000506" stroke="#000506"/>
<path d="M163.032 201.501C166.961 201.501 170.211 202.255 171.871 203.109V210.129C169.68 209.011 166.484 208.099 163.173 208.099C159.836 208.099 157.183 208.791 155.349 210.044C153.497 211.31 152.505 213.134 152.505 215.292C152.505 216.737 152.969 217.986 153.935 219.105C154.888 220.208 156.315 221.169 158.22 222.086L164.142 224.942H164.143C167.645 226.628 170.164 228.621 171.809 230.956C173.45 233.285 174.245 235.989 174.245 239.142C174.244 243.139 172.843 246.993 169.83 249.849C166.818 252.705 162.146 254.611 155.52 254.611C150.988 254.611 147.131 253.438 144.502 251.819V244.875C147.136 246.47 150.662 247.893 155.084 247.893C159.137 247.893 162.083 246.878 164.026 245.285C165.974 243.686 166.873 241.537 166.873 239.371C166.873 235.821 164.591 232.969 160.179 230.833L154.116 227.9L154.113 227.899C148.219 225.088 144.578 220.963 144.578 215.302C144.579 211.277 146.332 207.846 149.496 205.409C152.671 202.964 157.293 201.501 163.032 201.501Z" fill="#000506" stroke="#000506"/>
<path d="M191.227 202.199V253.521H183.66V202.199H191.227ZM224.179 202.199L201.191 225.481L200.862 225.813L201.173 226.164L225.377 253.51H215.631L192.101 227.037L191.241 226.069L192.084 225.213L214.721 202.199H224.179Z" fill="#000506" stroke="#000506"/>
<path d="M252.679 201.501C267.728 201.501 279.144 212.993 279.144 228.067C279.144 243.142 267.868 254.632 252.679 254.632C237.493 254.632 226.29 243.069 226.29 228.067C226.29 212.991 237.631 201.502 252.679 201.501ZM252.69 208.317C241.871 208.317 233.934 216.875 233.934 228.067C233.934 239.266 241.866 247.61 252.69 247.61C263.511 247.61 271.576 239.138 271.576 228.067C271.576 216.859 263.504 208.317 252.69 208.317Z" fill="#000506" stroke="#000506"/>
<path d="M296.431 202.188V246.628H314.056V253.509H288.864V202.188H296.431Z" fill="#000506" stroke="#000506"/>
<path d="M354.944 202.188V209.069H329.862V222.768H353.693V229.649H329.862V246.628H355.642V253.509H322.709V202.188H354.944Z" fill="#000506" stroke="#000506"/>
<path d="M366.262 201.839L402.62 236.159L403.462 236.955V202.188H410.964V253.793H410.273L373.981 219.051L373.135 218.241V253.509H365.709V201.839H366.262Z" fill="#000506" stroke="#000506"/>
<path d="M439.192 202.199C447.652 202.199 454.719 204.919 459.666 209.453C464.61 213.985 467.464 220.354 467.464 227.718C467.464 235.612 464.553 242.331 459.514 247.078C454.472 251.827 447.269 254.633 438.637 254.633C435.564 254.633 432.333 254.338 429.5 253.88C426.846 253.451 424.573 252.882 423.112 252.293V202.199H439.192ZM430.473 246.816L430.867 246.901C433.487 247.466 436.658 247.752 439.333 247.752C445.895 247.752 450.996 245.545 454.456 241.928C457.912 238.315 459.689 233.336 459.689 227.86C459.689 222.755 457.888 218.035 454.404 214.592C450.918 211.146 445.786 209.015 439.192 209.015H430.473V246.816Z" fill="#000506" stroke="#000506"/>
<path d="M484.74 202.199V253.521H477.173V202.199H484.74ZM517.693 202.199L494.704 225.481L494.375 225.813L494.686 226.164L518.89 253.51H509.144L485.614 227.037L484.754 226.069L485.597 225.213L508.234 202.199H517.693Z" fill="#000506" stroke="#000506"/>
<path d="M330.657 23.0868C321.73 25.5284 313.054 28.6023 304.693 32.2539C292.239 22.0512 276.237 16.0343 258.83 16.3177C220.913 16.9281 189.975 47.9067 189.365 85.8725C189.071 103.302 195.091 119.325 205.281 131.795C201.634 140.178 198.564 148.865 196.125 157.804H210.822C212.368 152.604 214.131 147.503 216.134 142.51C228.61 152.419 244.504 158.207 261.758 157.782C299.25 156.888 329.764 126.334 330.657 88.7938C331.07 71.5277 325.301 55.6133 315.405 43.1106C320.391 41.105 325.486 39.3282 330.678 37.7913V23.0759L330.657 23.0868ZM212.27 117.407C206.685 108.621 203.463 98.1789 203.474 86.9843C203.528 55.9621 228.936 30.5208 259.918 30.4663C271.109 30.4554 281.527 33.6819 290.302 39.2737C257.284 57.1175 230.09 84.3464 212.27 117.407ZM315.373 98.7239C310.985 120.743 293.633 138.118 271.643 142.51C252.603 146.315 234.782 140.527 222.132 129.092C239.354 94.5491 267.473 66.4045 301.961 49.1603C313.38 61.8155 319.15 79.6593 315.362 98.7348L315.373 98.7239Z" fill="#F47920"/>
</svg>
